<?xml version="1.0" standalone="no"?>
<!DOCTYPE svg PUBLIC "-//W3C//DTD SVG 20010904//EN"
 "http://www.w3.org/TR/2001/REC-SVG-20010904/DTD/svg10.dtd">
<svg version="1.0" xmlns="http://www.w3.org/2000/svg"
 width="381.000000pt" height="367.000000pt" viewBox="0 0 381.000000 367.000000"
 preserveAspectRatio="xMidYMid meet">

<g transform="translate(0.000000,367.000000) scale(0.100000,-0.100000)"
fill="#000000" stroke="none">
<path d="M1718 2904 c-5 -4 -8 -48 -9 -98 -1 -110 -8 -138 -37 -151 -15 -7
-22 -18 -22 -37 0 -14 -7 -33 -15 -42 -18 -18 -19 -43 -2 -49 7 -3 5 -6 -6 -6
-12 -1 -17 -9 -17 -28 1 -16 -2 -151 -6 -301 -6 -249 -9 -274 -25 -286 -11 -7
-16 -16 -12 -19 10 -11 -36 -8 -58 3 -17 10 -19 22 -19 130 0 106 -2 120 -18
129 -30 16 -75 8 -82 -14 -3 -11 -13 -21 -22 -21 -10 -1 -15 2 -12 7 8 13 -10
11 -24 -3 -8 -8 -14 -5 -22 16 -5 15 -10 31 -10 36 0 17 -35 70 -47 70 -7 0
-13 6 -13 14 0 7 -9 16 -21 19 -15 4 -19 2 -15 -8 3 -8 1 -17 -5 -20 -5 -4 -7
-11 -4 -16 4 -5 1 -9 -5 -9 -6 0 -8 -4 -5 -10 3 -5 0 -10 -7 -10 -11 0 -10 -2
0 -9 11 -6 10 -10 -5 -16 -10 -5 -21 -7 -25 -7 -5 1 -8 -54 -8 -123 l0 -125
-26 -6 -26 -7 31 -19 c17 -11 40 -18 51 -15 11 3 18 1 15 -3 -3 -5 3 -11 12
-13 10 -3 38 -10 63 -16 25 -7 95 -11 160 -9 108 3 115 4 113 23 -1 17 0 18
10 5 18 -22 37 -23 60 -3 12 11 17 12 12 4 -6 -11 -4 -13 9 -8 10 4 22 7 27 7
6 0 7 6 3 13 -5 9 -4 9 5 1 15 -14 63 -6 54 10 -4 8 -3 8 6 0 14 -13 62 -3
151 30 52 19 57 21 87 31 12 4 20 12 19 18 -2 7 -1 9 1 5 3 -5 14 -8 24 -8 11
0 18 4 15 9 -4 5 4 7 16 3 12 -3 19 -1 15 4 -3 5 6 10 20 9 l26 0 -2 85 c-1
47 -3 86 -4 87 -6 5 -156 10 -155 5 5 -22 -16 -143 -26 -149 -16 -10 -46 -11
-40 -1 3 4 -2 8 -10 8 -14 0 -16 29 -17 233 -1 127 -1 236 1 242 1 5 -5 14
-13 20 -8 5 -16 15 -18 20 -2 6 -8 9 -12 7 -5 -1 -6 2 -2 8 3 6 11 8 16 5 17
-11 9 8 -13 33 -13 14 -17 22 -10 18 15 -9 16 6 0 22 -7 7 -9 12 -4 12 4 0 -4
10 -18 23 -23 20 -26 32 -33 135 -5 63 -11 110 -15 106z m-18 -1018 c0 -2 -7
-7 -16 -10 -8 -3 -12 -2 -9 4 6 10 25 14 25 6z"/>
<path d="M2676 2601 c-72 -15 -80 -18 -82 -41 -1 -14 -6 -95 -10 -180 -7 -154
-16 -190 -48 -190 -6 0 -4 5 4 10 23 15 6 12 -28 -6 -33 -16 -36 -28 -35 -126
0 -10 -4 -19 -9 -19 -42 -7 -43 -6 -48 73 -4 67 -8 79 -31 97 -15 11 -29 17
-33 14 -3 -3 -6 -1 -6 6 0 7 -4 10 -9 7 -5 -3 -28 1 -51 9 -39 14 -44 14 -70
-5 -15 -11 -35 -20 -44 -20 -12 0 -16 -10 -16 -39 0 -22 -5 -41 -12 -43 -7 -3
-14 -32 -16 -74 -3 -38 -10 -73 -16 -77 -6 -5 0 -6 14 -3 28 7 187 27 210 27
35 -1 109 -12 165 -26 33 -8 72 -16 86 -18 15 -1 34 -9 43 -16 9 -7 22 -11 30
-8 8 3 17 -1 20 -9 3 -8 9 -13 13 -12 8 1 41 -13 83 -37 l25 -14 3 341 c2 267
-1 343 -10 350 -10 6 -10 8 0 8 6 0 12 5 12 12 0 6 -3 9 -6 5 -4 -3 -13 0 -21
8 -8 8 -17 15 -21 14 -4 -1 -43 -9 -86 -18z m-269 -547 c-3 -3 -12 -4 -19 -1
-8 3 -5 6 6 6 11 1 17 -2 13 -5z"/>
</g>
</svg>
