<svg xmlns="http://www.w3.org/2000/svg" xmlns:xlink="http://www.w3.org/1999/xlink" width="1080" zoomAndPan="magnify" viewBox="0 0 810 809.999993" height="1080" preserveAspectRatio="xMidYMid meet" version="1.0"><defs><clipPath id="30baf86550"><path d="M 30.632812 80 L 779.132812 80 L 779.132812 810 L 30.632812 810 Z M 30.632812 80 " clip-rule="nonzero"/></clipPath><clipPath id="a2951157f7"><path d="M 0 53 L 810 53 L 810 809.691406 L 0 809.691406 Z M 0 53 " clip-rule="nonzero"/></clipPath><clipPath id="23f503727f"><path d="M 14 438.433594 L 779 438.433594 L 779 810 L 14 810 Z M 14 438.433594 " clip-rule="nonzero"/></clipPath><clipPath id="3d17db4d73"><path d="M 151 460 L 593 460 L 593 810 L 151 810 Z M 151 460 " clip-rule="nonzero"/></clipPath><clipPath id="bd8df66060"><path d="M 117.046875 511.4375 L 590.691406 454.988281 L 630.101562 785.648438 L 156.453125 842.097656 Z M 117.046875 511.4375 " clip-rule="nonzero"/></clipPath><clipPath id="a39328c1cc"><path d="M 117.046875 511.4375 L 590.691406 454.988281 L 630.101562 785.648438 L 156.453125 842.097656 Z M 117.046875 511.4375 " clip-rule="nonzero"/></clipPath><clipPath id="86c07512ae"><path d="M 319 615 L 512 615 L 512 783 L 319 783 Z M 319 615 " clip-rule="nonzero"/></clipPath><clipPath id="9f3d78de49"><path d="M 117.046875 511.4375 L 590.691406 454.988281 L 630.101562 785.648438 L 156.453125 842.097656 Z M 117.046875 511.4375 " clip-rule="nonzero"/></clipPath><clipPath id="8a8f5f738e"><path d="M 117.046875 511.4375 L 590.691406 454.988281 L 630.101562 785.648438 L 156.453125 842.097656 Z M 117.046875 511.4375 " clip-rule="nonzero"/></clipPath><clipPath id="9ba387e5b9"><path d="M 215 520 L 505 520 L 505 784 L 215 784 Z M 215 520 " clip-rule="nonzero"/></clipPath><clipPath id="bff91379ce"><path d="M 117.046875 511.4375 L 590.691406 454.988281 L 630.101562 785.648438 L 156.453125 842.097656 Z M 117.046875 511.4375 " clip-rule="nonzero"/></clipPath><clipPath id="d38c297415"><path d="M 117.046875 511.4375 L 590.691406 454.988281 L 630.101562 785.648438 L 156.453125 842.097656 Z M 117.046875 511.4375 " clip-rule="nonzero"/></clipPath><clipPath id="a6df97ce62"><path d="M 402 697 L 475 697 L 475 762 L 402 762 Z M 402 697 " clip-rule="nonzero"/></clipPath><clipPath id="d729a434a6"><path d="M 117.046875 511.4375 L 590.691406 454.988281 L 630.101562 785.648438 L 156.453125 842.097656 Z M 117.046875 511.4375 " clip-rule="nonzero"/></clipPath><clipPath id="141af52fc1"><path d="M 117.046875 511.4375 L 590.691406 454.988281 L 630.101562 785.648438 L 156.453125 842.097656 Z M 117.046875 511.4375 " clip-rule="nonzero"/></clipPath><clipPath id="e8400f7006"><path d="M 213 519 L 506 519 L 506 780 L 213 780 Z M 213 519 " clip-rule="nonzero"/></clipPath><clipPath id="f3fc3843aa"><path d="M 117.046875 511.4375 L 590.691406 454.988281 L 630.101562 785.648438 L 156.453125 842.097656 Z M 117.046875 511.4375 " clip-rule="nonzero"/></clipPath><clipPath id="fc7e8f5350"><path d="M 117.046875 511.4375 L 590.691406 454.988281 L 630.101562 785.648438 L 156.453125 842.097656 Z M 117.046875 511.4375 " clip-rule="nonzero"/></clipPath><clipPath id="35d98fb676"><path d="M 196.890625 19 L 529.890625 19 L 529.890625 190 L 196.890625 190 Z M 196.890625 19 " clip-rule="nonzero"/></clipPath><clipPath id="cc4e309a6e"><path d="M 233 209.140625 L 430 209.140625 L 430 375 L 233 375 Z M 233 209.140625 " clip-rule="nonzero"/></clipPath></defs><rect x="-81" width="972" fill="#ffffff" y="-80.999999" height="971.999992" fill-opacity="1"/><rect x="-81" width="972" fill="#4f874d" y="-80.999999" height="971.999992" fill-opacity="1"/><g clip-path="url(#30baf86550)"><path fill="#862f2f" d="M 779.027344 821.128906 C 779 822.148438 778.84375 823.167969 778.710938 824.546875 C 529.617188 824.546875 280.742188 824.546875 31.558594 824.546875 C 30.582031 820.21875 30.945312 815.898438 31.332031 811.578125 C 31.472656 810.015625 31.824219 808.453125 31.828125 806.890625 C 31.871094 789.707031 33.746094 772.6875 35.9375 755.664062 C 38.398438 736.546875 41.972656 717.667969 46.664062 699 C 52.738281 674.820312 60.625 651.273438 70.972656 628.539062 C 80.113281 608.46875 91.226562 589.667969 105.621094 572.960938 C 112.136719 565.398438 119.5625 558.660156 127.039062 551.984375 C 136.738281 543.3125 146.910156 535.339844 157.722656 528.121094 C 171.527344 518.910156 186.675781 512.5625 202.089844 506.652344 C 231.375 495.421875 260.570312 483.96875 289.757812 472.492188 C 294.808594 470.507812 299.695312 468.050781 303.890625 464.46875 C 307.765625 461.160156 310.355469 457.359375 310.230469 451.859375 C 309.996094 441.691406 310.164062 431.519531 310.164062 421.753906 C 309.109375 420.003906 307.714844 419.683594 306.390625 419.261719 C 284.800781 412.441406 268.367188 398.722656 255.042969 380.859375 C 239.074219 359.449219 230.613281 335.023438 225.671875 309.035156 C 221.902344 289.210938 221.90625 269.234375 222.847656 249.300781 C 224.257812 219.464844 230.75 190.695312 244.535156 163.9375 C 253.917969 145.722656 265.671875 129.152344 280.8125 115.246094 C 297.875 99.578125 317.335938 88.058594 340.140625 82.847656 C 370.3125 75.949219 397.90625 81.949219 422.585938 100.398438 C 441.972656 114.890625 454.746094 134.367188 463.066406 156.917969 C 468.0625 170.464844 471.109375 184.441406 472.414062 198.808594 C 472.476562 199.507812 472.550781 200.210938 473.5 200.878906 C 476.058594 201.109375 478.550781 199.546875 481.226562 198.9375 C 505.652344 193.398438 526.25 209.746094 530.183594 232.6875 C 535.28125 262.433594 524.851562 286.464844 500.910156 304.476562 C 493.394531 310.128906 484.433594 312.933594 474.976562 313.777344 C 474.300781 313.839844 473.632812 314.039062 473.105469 314.144531 C 471.871094 315.691406 472.269531 317.332031 472.269531 318.867188 C 472.265625 348.714844 472.125 378.566406 472.382812 408.414062 C 472.503906 422.367188 476.210938 435.445312 484.535156 446.894531 C 492.066406 457.257812 501.878906 463.757812 514.859375 465.789062 C 531.082031 468.332031 547.171875 471.699219 563.335938 474.636719 C 580.015625 477.664062 596.714844 480.570312 613.394531 483.589844 C 624.574219 485.617188 635.730469 487.742188 646.898438 489.832031 C 659.953125 492.269531 673.039062 494.554688 686.054688 497.191406 C 713.761719 502.796875 733.113281 519.609375 746.753906 543.554688 C 757.183594 561.867188 763.242188 581.726562 766.496094 602.53125 C 768.449219 615.023438 768.953125 627.582031 769.570312 640.164062 C 770.292969 654.855469 771.121094 669.542969 771.828125 684.238281 C 772.445312 697 773.039062 709.777344 773.921875 722.515625 C 774.972656 737.707031 775.050781 752.949219 776.675781 768.105469 C 777.382812 774.714844 777.277344 781.40625 777.554688 788.042969 C 778.019531 799.070312 779.3125 810.070312 779.027344 821.128906 Z M 779.027344 821.128906 " fill-opacity="1" fill-rule="nonzero"/></g><path fill="#000000" d="M 141.527344 696.992188 C 141.636719 698.425781 141.179688 699.410156 140.164062 700.425781 C 126.292969 714.292969 116.292969 730.496094 111.28125 749.523438 C 106.660156 767.078125 106.828125 784.449219 114.707031 801.203125 C 119.445312 811.273438 126.6875 819.171875 136.730469 825.335938 C 115.257812 825.335938 94.484375 825.335938 73.375 825.335938 C 93.886719 755.984375 114.34375 686.816406 134.839844 617.660156 C 134.90625 617.4375 135.582031 617.390625 136.121094 617.214844 C 136.492188 621.796875 136.910156 626.222656 137.203125 630.65625 C 138.300781 647.261719 139.359375 663.871094 140.433594 680.476562 C 140.789062 685.984375 141.113281 691.492188 141.527344 696.992188 Z M 424.023438 376.195312 C 413.871094 388.671875 401.796875 398.894531 387.960938 407.066406 C 372.457031 416.226562 355.796875 421.851562 337.816406 423.265625 C 328.777344 423.976562 319.835938 422.980469 311.058594 420.714844 C 309.980469 420.441406 308.808594 419.75 308.53125 420.277344 C 308.5 420.335938 309.296875 454.511719 309.585938 455.046875 C 317.039062 455.613281 324.070312 454.355469 331.140625 452.09375 C 365.597656 441.070312 393.761719 420.875 416.542969 392.976562 C 418.773438 390.242188 426.25 374.539062 426.40625 374.046875 C 426.121094 374.074219 424.183594 376 424.023438 376.195312 Z M 652.445312 592.140625 C 650.160156 592.132812 650.144531 592.121094 649.171875 593.492188 C 631.738281 618.074219 618.015625 644.628906 607.1875 672.710938 C 592.636719 710.4375 583.472656 749.335938 581.335938 789.824219 C 580.710938 801.660156 581.0625 813.445312 581.554688 825.230469 C 582.375 825.644531 583.125 825.652344 583.773438 825.34375 C 580.355469 739.9375 605.125 662.847656 652.445312 592.140625 Z M 503 248.894531 C 501.339844 252.242188 499.046875 255.058594 496.039062 257.273438 C 491.808594 260.386719 487.222656 262.304688 481.597656 261.527344 C 483.023438 249.023438 487.382812 238.390625 498.003906 231.132812 C 498.933594 230.5 499.773438 229.96875 499.007812 228.589844 C 497.566406 228.160156 496.683594 229 495.769531 229.613281 C 483.355469 237.960938 476.054688 258.132812 480.363281 272.394531 C 481.824219 277.21875 484.488281 281.246094 489.148438 283.621094 C 490 284.054688 491.136719 284.414062 491.707031 283.351562 C 492.28125 282.277344 491.207031 281.90625 490.4375 281.480469 C 484.613281 278.25 481.203125 271.296875 482.039062 264.414062 C 493.058594 263.964844 505.4375 255.378906 505.496094 248.421875 C 505.496094 248.277344 505.46875 247.960938 505.320312 247.742188 C 505.167969 247.527344 504.894531 247.414062 504.820312 247.394531 C 503.785156 247.15625 503.394531 248.09375 503 248.894531 Z M 503 248.894531 " fill-opacity="1" fill-rule="nonzero"/><g clip-path="url(#a2951157f7)"><path fill="#eae6ad" d="M 853.304688 779.785156 C 847.039062 787.695312 839.195312 793.5625 830.078125 797.777344 C 817.585938 803.550781 804.371094 806.601562 790.742188 808.109375 C 784.820312 808.765625 778.925781 809.691406 772.957031 809.910156 C 769.886719 810.019531 766.855469 809.847656 763.332031 809.414062 C 762.527344 793.972656 761.761719 778.992188 760.972656 764.015625 C 759.417969 734.546875 757.84375 705.082031 756.292969 675.617188 C 755.082031 652.621094 754.128906 629.613281 752.628906 606.636719 C 750.878906 579.890625 743.613281 554.703125 729.558594 531.71875 C 715.113281 508.105469 694.257812 494.253906 666.800781 489.554688 C 628.359375 482.976562 590.058594 475.59375 551.6875 468.59375 C 536.105469 465.753906 520.488281 463.117188 504.921875 460.183594 C 491.945312 457.742188 482.273438 450.359375 475.332031 439.300781 C 467.855469 427.382812 465.089844 414.140625 465.035156 400.28125 C 464.917969 372.480469 464.976562 344.679688 464.988281 316.878906 C 464.988281 315.195312 464.679688 313.460938 465.507812 311.703125 C 468.117188 310.554688 471.09375 310.859375 473.886719 310.148438 C 490.175781 306.011719 502.007812 295.984375 510.761719 282.089844 C 518.113281 270.425781 521.980469 257.597656 521.148438 243.75 C 520.183594 227.679688 514.015625 214.308594 499.117188 206.449219 C 490.289062 201.789062 480.757812 201.257812 471.285156 204.007812 C 464.566406 205.953125 459.441406 204.167969 454.652344 199.484375 C 448.363281 193.335938 444.730469 186.015625 444.753906 177.25 C 444.777344 166.714844 440.363281 162.96875 430.382812 160.636719 C 427.078125 159.867188 423.664062 159.53125 420.285156 159.132812 C 411.214844 158.0625 405.25 153.296875 402.546875 144.511719 C 401.390625 140.753906 400.714844 136.925781 400.421875 133 C 399.742188 123.96875 395.441406 119.183594 386.609375 117.125 C 381.402344 115.910156 376.097656 115.917969 370.84375 115.8125 C 356.816406 115.53125 347.25 109.160156 342.296875 95.972656 C 342.125 95.519531 341.785156 95.125 341.242188 94.246094 C 339.855469 96.726562 339.882812 99.246094 339.285156 101.542969 C 328.316406 143.835938 304.507812 176.136719 265.308594 196.367188 C 255.703125 201.324219 245.398438 204.199219 234.667969 205.660156 C 231.332031 206.113281 229.289062 205.261719 227.558594 202.304688 C 221.03125 191.160156 218.734375 179.03125 219.835938 166.417969 C 222.394531 137.09375 235.585938 112.808594 256.425781 92.503906 C 268.445312 80.796875 282.292969 71.996094 298.828125 67.996094 C 312.425781 64.707031 325.527344 65.585938 337.8125 73.1875 C 344.796875 68.742188 351.890625 64.675781 359.589844 61.863281 C 398.425781 47.667969 435.09375 52.488281 468.988281 75.710938 C 495.816406 94.09375 511.898438 119.949219 517.964844 151.910156 C 519.269531 158.773438 519.910156 165.773438 519.46875 172.769531 C 519.011719 180.046875 521.695312 186.066406 526.164062 191.507812 C 530.167969 196.375 534.558594 200.90625 538.359375 205.957031 C 546.453125 216.710938 551.648438 228.894531 556.265625 241.394531 C 557.796875 245.546875 559.523438 249.628906 561.167969 253.738281 C 565.210938 263.832031 572.210938 270.558594 582.761719 273.867188 C 595.632812 277.90625 608.855469 280.285156 622.019531 282.980469 C 633.03125 285.238281 643.992188 287.679688 654.40625 292.070312 C 662.167969 295.34375 669.308594 299.539062 675.035156 305.867188 C 683.496094 315.210938 686.335938 326.589844 687.050781 338.757812 C 687.679688 349.503906 686.492188 360.199219 686.136719 370.921875 C 685.902344 378.082031 685.914062 385.21875 687.125 392.320312 C 689.433594 405.882812 696.730469 415.304688 709.777344 420.125 C 716.847656 422.742188 724.222656 423.992188 731.597656 425.277344 C 740.484375 426.820312 749.375 428.300781 757.960938 431.238281 C 775.835938 437.355469 785.972656 449.75 788.734375 468.386719 C 789.4375 473.121094 789.695312 477.851562 789.769531 482.625 C 789.949219 494.039062 789.660156 505.441406 790.304688 516.867188 C 791.292969 534.417969 798.882812 547.324219 814.617188 555.363281 C 821.132812 558.695312 827.652344 562.03125 834.027344 565.621094 C 846.3125 572.535156 855.046875 582.3125 857.902344 596.535156 C 859.816406 606.070312 858.699219 615.523438 856.699219 624.894531 C 854.246094 636.390625 850.125 647.386719 846.347656 658.484375 C 843.605469 666.539062 840.945312 674.59375 839.464844 683.03125 C 837.726562 692.964844 839.191406 702.277344 843.527344 711.300781 C 847.511719 719.582031 852.203125 727.515625 855.40625 736.179688 C 857.839844 742.765625 859.324219 749.53125 860.242188 756.472656 C 861.410156 765.320312 858.726562 772.933594 853.304688 779.785156 Z M 308.335938 420.785156 C 308.328125 419.292969 308.710938 417.734375 307.871094 416.277344 C 307.257812 416.003906 306.65625 415.664062 306.011719 415.464844 C 287.675781 409.921875 272.730469 399.296875 260.359375 384.886719 C 243.050781 364.726562 233.257812 341 227.585938 315.347656 C 225.386719 305.394531 224.136719 295.292969 223.105469 284.117188 C 210.476562 292.96875 197.453125 299.441406 186.199219 308.617188 C 181.167969 312.71875 176.546875 317.257812 172.449219 322.300781 C 160.882812 336.535156 155.015625 352.554688 157.132812 371.097656 C 158.003906 378.695312 159.496094 386.195312 160.4375 393.789062 C 161.824219 404.980469 158.765625 414.617188 151.808594 423.238281 C 146.277344 430.097656 139.238281 435.195312 132.035156 440.085938 C 119.914062 448.3125 107.136719 455.542969 95.386719 464.335938 C 87.167969 470.484375 79.453125 477.179688 73.257812 485.429688 C 64.78125 496.707031 60.296875 509.199219 61.566406 523.550781 C 62.246094 531.25 64.46875 538.558594 66.34375 545.96875 C 67.804688 551.753906 69.085938 557.574219 69.074219 563.5625 C 69.054688 573.621094 64.742188 581.996094 58.300781 589.367188 C 51.800781 596.808594 44.5625 603.621094 38.726562 611.632812 C 24.742188 630.828125 15.09375 651.449219 17.746094 676.125 C 18.253906 680.847656 17.960938 685.640625 17.203125 690.398438 C 15.898438 698.574219 12.800781 706.097656 9.382812 713.546875 C 2.046875 729.535156 -1.097656 746.203125 1.304688 763.78125 C 3.664062 781.046875 11.746094 794.5625 27.039062 803.382812 C 30.097656 805.144531 33.203125 806.921875 36.984375 806.929688 C 37.625 805.132812 37.347656 803.414062 37.371094 801.730469 C 37.476562 794.578125 37.480469 787.441406 37.96875 780.28125 C 39.234375 761.75 41.167969 743.320312 44.261719 725.003906 C 49.839844 691.984375 58.753906 659.9375 71.167969 628.796875 C 90.660156 579.910156 123.539062 542.738281 168.488281 515.910156 C 174.617188 512.25 180.882812 508.832031 187.589844 506.226562 C 221.6875 492.988281 255.757812 479.667969 289.816406 466.328125 C 294.4375 464.519531 298.730469 462.050781 302.484375 458.769531 C 306.371094 455.371094 308.65625 451.371094 308.4375 445.851562 C 308.105469 437.507812 308.375 429.140625 308.335938 420.785156 Z M 308.335938 420.785156 " fill-opacity="1" fill-rule="nonzero"/></g><path fill="#000000" d="M 243.078125 171.308594 C 240.566406 177.457031 239.097656 183.949219 238.757812 190.648438 C 238.683594 192.09375 238.964844 193.789062 237.160156 194.550781 C 235.449219 193.714844 236.027344 192.292969 236.148438 190.96875 C 237.441406 176.976562 242.171875 164.105469 249.230469 152.105469 C 263.761719 127.390625 283.375 108.066406 309.785156 96.199219 C 314.195312 94.21875 318.707031 92.332031 323.628906 91.984375 C 324.394531 94.136719 322.984375 94.230469 321.902344 94.589844 C 283.175781 107.367188 258.195312 134.308594 243.078125 171.308594 Z M 318.890625 100.683594 C 296.914062 111.9375 278.6875 127.449219 265.164062 148.242188 C 259.085938 157.585938 254.492188 167.613281 251.652344 178.417969 C 251.328125 179.648438 250.476562 181.042969 253.078125 181.769531 C 263.515625 143.664062 289.183594 118.542969 323.929688 100.578125 C 321.136719 98.996094 320.035156 100.097656 318.890625 100.683594 Z M 654.015625 319.324219 C 653.097656 318.730469 652.0625 317.703125 650.992188 319.152344 C 650.878906 319.964844 651.3125 320.484375 651.890625 320.835938 C 663.269531 327.792969 665.636719 338.890625 665.203125 350.917969 C 664.765625 362.988281 662.574219 374.875 659.96875 386.667969 C 659 391.039062 658.964844 395.464844 659.449219 399.871094 C 659.667969 401.902344 659.925781 404.1875 662.378906 404.921875 C 663.285156 404.117188 663.066406 403.414062 662.824219 402.816406 C 660.886719 398.027344 661.320312 393.117188 662.164062 388.234375 C 663.519531 380.367188 665.308594 372.566406 666.390625 364.667969 C 667.542969 356.257812 668.464844 347.792969 666.890625 339.273438 C 665.324219 330.8125 661.292969 324.035156 654.015625 319.324219 Z M 646.953125 326.523438 C 646.191406 325.75 645.355469 325.15625 644.15625 326.835938 C 651.273438 334.296875 650.546875 343.648438 649.675781 353.050781 C 649.1875 358.328125 647.960938 363.445312 646.6875 368.5625 C 643.964844 379.515625 642.394531 390.597656 642.90625 401.910156 C 643.066406 405.472656 643.5625 408.957031 646.527344 411.765625 C 647.542969 410.710938 647.613281 409.996094 647.296875 409.398438 C 645.050781 405.140625 645.121094 400.558594 645.214844 395.9375 C 645.417969 385.660156 647.40625 375.671875 649.886719 365.75 C 651.960938 357.449219 653.121094 349.042969 652.417969 340.464844 C 651.992188 335.285156 650.75 330.390625 646.953125 326.523438 Z M 53.292969 613.449219 C 45.554688 622.394531 39.453125 632.347656 34.996094 643.332031 C 31.703125 651.453125 29.898438 659.882812 29.210938 668.570312 C 28.953125 671.828125 28.984375 675.125 30.933594 678.535156 C 32.667969 676.710938 31.976562 674.953125 31.921875 673.402344 C 31.753906 668.796875 31.90625 664.226562 32.78125 659.683594 C 36.054688 642.710938 44.125 628.144531 55.058594 614.984375 C 56.066406 613.769531 57.902344 612.972656 57.527344 610.566406 C 54.964844 610.332031 54.304688 612.277344 53.292969 613.449219 Z M 80.691406 498.28125 C 76.292969 506.425781 74.472656 515.085938 75.5 524.351562 C 76.425781 532.664062 79 540.613281 80.613281 548.777344 C 81.433594 552.9375 81.1875 556.882812 79.121094 560.648438 C 78.585938 561.617188 77.464844 562.519531 78.558594 563.828125 C 80.144531 564.222656 80.601562 562.921875 81.179688 561.957031 C 83.871094 557.449219 83.976562 552.578125 82.910156 547.625 C 81.65625 541.8125 80.230469 536.035156 78.953125 530.226562 C 76.449219 518.820312 77.527344 507.941406 83.851562 497.863281 C 84.316406 497.121094 84.722656 496.386719 83.964844 495.207031 C 81.855469 495.375 81.371094 497.027344 80.691406 498.28125 Z M 828.953125 714.707031 C 827.121094 709.777344 825.371094 704.804688 823.285156 699.984375 C 818.722656 689.453125 819.265625 679.191406 824.28125 668.992188 C 824.886719 667.765625 826.289062 666.519531 825.0625 664.746094 C 824.578125 664.863281 823.84375 664.828125 823.683594 665.117188 C 819.6875 672.171875 817.070312 679.636719 817.671875 687.875 C 818.238281 695.636719 821.597656 702.605469 824.410156 709.6875 C 826.621094 715.25 828.667969 720.78125 828.492188 726.882812 C 828.460938 727.914062 828.527344 728.980469 830.375 728.984375 C 831.339844 724.09375 830.671875 719.347656 828.953125 714.707031 Z M 764.554688 466.332031 C 761.632812 460.609375 756.921875 456.820312 751.300781 454.128906 C 741.269531 449.332031 730.492188 448.214844 719.542969 448.132812 C 718.617188 448.128906 717.902344 448.46875 717.386719 449.277344 C 718.15625 450.839844 719.257812 450.589844 720.246094 450.632812 C 723.300781 450.757812 726.375 450.703125 729.414062 451.015625 C 738.074219 451.910156 746.535156 453.628906 753.984375 458.484375 C 760.328125 462.617188 764.414062 468.128906 764.109375 476.128906 C 764.074219 477.101562 763.871094 478.25 765.304688 478.550781 C 766.632812 478.28125 766.761719 477.148438 766.71875 476.191406 C 766.566406 472.792969 766.152344 469.457031 764.554688 466.332031 Z M 167.894531 421.644531 C 164.117188 423.535156 163.324219 427.265625 161.148438 429.753906 C 158.792969 432.441406 156.710938 435.378906 154.285156 438 C 151.976562 440.496094 149.480469 442.847656 146.878906 445.042969 C 144.148438 447.34375 141.300781 449.542969 138.3125 451.496094 C 135.332031 453.449219 132.109375 455.03125 129.003906 456.800781 C 126.074219 458.46875 122.371094 458.71875 119.640625 461.585938 C 132.257812 463.144531 164.539062 436.488281 167.894531 421.644531 Z M 285.136719 99.648438 C 288.828125 97.574219 292.660156 95.703125 296.566406 94.070312 C 300.628906 92.371094 304.875 91.121094 309.003906 89.574219 C 312.765625 88.167969 317.035156 88.3125 321.644531 86.074219 C 309.019531 83.3125 269.464844 102.128906 263.003906 113.886719 C 267.769531 112.070312 270.476562 108.757812 273.914062 106.679688 C 277.691406 104.394531 281.292969 101.804688 285.136719 99.648438 Z M 560.261719 278.921875 C 555.945312 273.855469 553.84375 267.6875 551.777344 260.523438 C 549.570312 266.1875 553.789062 275.910156 560.476562 282.84375 C 569.476562 292.171875 586.730469 298.957031 594.496094 295.613281 C 588.15625 293.945312 581.585938 293.339844 575.601562 290.449219 C 569.703125 287.601562 564.53125 283.929688 560.261719 278.921875 Z M 799.105469 578.003906 C 802.382812 580.453125 805.835938 582.621094 809.601562 584.226562 C 813.078125 585.707031 816.46875 587.742188 820.710938 586.636719 C 802.828125 580.242188 788.734375 570.082031 782.839844 550.976562 C 781.085938 558.046875 788.832031 570.328125 799.105469 578.003906 Z M 822.101562 600.503906 C 812.519531 598.644531 804.367188 595.644531 797.089844 590.609375 C 789.574219 585.40625 783.699219 578.730469 779.070312 570.78125 C 778.71875 583.570312 810.796875 606.320312 822.101562 600.503906 Z M 458.929688 189.328125 C 456.242188 180.796875 455.523438 172.0625 455.980469 163.171875 C 456.078125 161.253906 456.929688 159.164062 455.425781 157.269531 C 450.175781 167.070312 455.601562 200.730469 466.699219 205.242188 C 467.386719 203.386719 466.191406 202.714844 465.492188 201.863281 C 462.421875 198.140625 460.367188 193.898438 458.929688 189.328125 Z M 166.910156 436.484375 C 164.945312 440.070312 162.605469 443.425781 160.082031 446.644531 C 157.660156 449.738281 154.847656 452.460938 152.035156 455.195312 C 149.183594 457.96875 145.261719 459.394531 142.875 462.820312 C 147.816406 462.460938 151.164062 459.214844 154.507812 456.144531 C 164.316406 447.136719 173.132812 433.070312 172.191406 426.261719 C 170.4375 429.671875 168.753906 433.121094 166.910156 436.484375 Z M 90.882812 508.128906 C 91.230469 507.335938 91.585938 506.566406 90.484375 505.644531 C 89.066406 505.902344 88.734375 506.890625 88.355469 507.824219 C 86.65625 511.976562 86.023438 516.300781 86.207031 520.777344 C 86.433594 526.28125 88.21875 531.433594 89.679688 536.652344 C 91.128906 541.820312 92.097656 546.914062 89.753906 552.078125 C 89.46875 552.710938 89.605469 553.410156 90.855469 553.914062 C 92.957031 552.171875 93.300781 549.601562 93.523438 546.957031 C 94.042969 540.847656 91.839844 535.238281 90.238281 529.542969 C 88.199219 522.304688 87.804688 515.183594 90.882812 508.128906 Z M 542.707031 268.398438 C 540.453125 269.804688 541.214844 270.957031 541.496094 272.054688 C 543.957031 281.6875 548.820312 289.917969 556.058594 296.710938 C 558.917969 299.394531 562.140625 301.605469 565.871094 302.976562 C 567.425781 303.546875 568.972656 304.136719 571.8125 302.515625 C 554.40625 297.117188 547.425781 283.792969 542.707031 268.398438 Z M 730.328125 460.992188 C 732.84375 463.722656 736.511719 463.195312 739.507812 464.726562 C 742.71875 466.371094 745.8125 468.089844 748.25 470.800781 C 750.570312 473.375 752.011719 476.382812 753.136719 479.664062 C 754.273438 482.972656 752.816406 486.59375 754.839844 489.707031 C 757.054688 483.132812 755.894531 476.980469 751.878906 471.4375 C 746.597656 464.144531 739.179688 460.933594 730.328125 460.992188 Z M 189.050781 340.285156 C 184.890625 341.410156 182.683594 344.257812 179.746094 352.554688 C 176.75 361.011719 174.851562 369.632812 178.515625 378.460938 C 177.152344 364.515625 181.042969 352.101562 189.050781 340.285156 Z M 467.433594 156.167969 C 463.800781 159.625 462.984375 171.546875 465.152344 182.894531 C 466.496094 189.933594 468.21875 193.523438 471.726562 195.242188 C 469.144531 188.546875 467.203125 182.328125 466.539062 175.804688 C 465.871094 169.226562 467.054688 162.757812 467.433594 156.167969 Z M 187.410156 363.871094 C 186.304688 368.835938 185.875 373.769531 189 378.929688 C 190.339844 377.207031 190.050781 376.167969 189.761719 375.253906 C 188.253906 370.460938 189.242188 365.859375 190.613281 361.242188 C 192.222656 355.84375 194.464844 350.734375 197.246094 345.851562 C 197.746094 344.976562 198.546875 344.21875 197.582031 343.191406 C 193.859375 345.261719 189.675781 353.695312 187.410156 363.871094 Z M 187.410156 363.871094 " fill-opacity="1" fill-rule="nonzero"/><g clip-path="url(#23f503727f)"><path fill="#ff7f45" d="M 778.253906 822.3125 C 778.246094 822.964844 778.042969 823.613281 777.878906 824.535156 C 523.417969 824.535156 269.113281 824.535156 14.269531 824.535156 C 14.269531 816.050781 13.84375 807.824219 14.375 799.664062 C 15.046875 789.417969 15.734375 779.164062 16.886719 768.9375 C 20.050781 740.957031 25.460938 713.425781 32.609375 686.214844 C 40.910156 654.636719 51.398438 623.828125 65.660156 594.398438 C 71.125 583.125 76.863281 571.972656 84.582031 562.007812 C 92.980469 551.164062 103.445312 542.558594 114.644531 534.792969 C 140.472656 516.886719 168.628906 503.4375 197.777344 491.984375 C 227.855469 480.171875 258.679688 470.804688 290.480469 464.800781 C 291.660156 464.578125 292.800781 464.183594 294.707031 463.664062 C 294.707031 457.996094 294.707031 452.535156 294.707031 446.085938 C 303.550781 449.613281 311.265625 453.941406 319.71875 456.378906 C 328.148438 458.808594 336.65625 460.765625 345.335938 461.988281 C 354.191406 463.238281 363.070312 464.042969 372.03125 464.054688 C 380.972656 464.066406 389.898438 463.925781 398.800781 462.972656 C 407.6875 462.019531 416.507812 460.640625 425.207031 458.632812 C 433.738281 456.664062 442.082031 454.050781 450.253906 450.855469 C 458.539062 447.613281 466.171875 443.09375 474.253906 438.433594 C 476.203125 445.03125 474.402344 451.359375 476.308594 457.34375 C 479.007812 458.132812 481.761719 457.714844 484.472656 457.746094 C 544.855469 458.484375 603.660156 468.554688 660.902344 487.695312 C 672.300781 491.507812 683.292969 496.320312 694.136719 501.542969 C 713.664062 510.945312 727.644531 525.671875 737.34375 544.8125 C 747.011719 563.902344 753.546875 584.09375 758.757812 604.75 C 765.09375 629.871094 769.417969 655.351562 772.449219 681.070312 C 774.996094 702.695312 776.675781 724.371094 777.730469 746.125 C 778.960938 771.527344 778.589844 796.914062 778.253906 822.3125 Z M 778.253906 822.3125 " fill-opacity="1" fill-rule="nonzero"/></g><path fill="#ff421f" d="M 232.710938 761.378906 C 232.867188 771.316406 234.511719 781.226562 233.589844 791.15625 C 232.5625 802.277344 232.726562 813.40625 232.75 824.535156 C 231.730469 824.535156 230.714844 824.535156 229.699219 824.535156 C 229.679688 802.0625 229.625 779.585938 229.839844 757.117188 C 229.964844 743.726562 229.128906 730.375 228.414062 717.046875 C 227.6875 703.4375 226.460938 689.816406 224.792969 676.234375 C 221.136719 646.4375 214.378906 617.339844 206.519531 588.441406 C 200.582031 566.613281 193.519531 545.136719 186.589844 523.617188 C 184.027344 515.660156 181.617188 507.652344 179.21875 499.644531 C 180.152344 499.238281 181.085938 498.832031 182.023438 498.429688 C 188 518.019531 194.492188 537.449219 200.589844 557 C 209.5625 585.765625 217.402344 614.847656 223.082031 644.445312 C 225.589844 657.511719 227.492188 670.710938 228.71875 684.003906 C 230.105469 698.992188 231.128906 713.984375 231.957031 729.015625 C 232.550781 739.816406 232.542969 750.59375 232.710938 761.378906 Z M 325.605469 476.457031 C 322.695312 476.796875 322.6875 478.722656 322.640625 480.621094 C 322.457031 487.976562 322.386719 495.3125 321.753906 502.675781 C 320.886719 512.722656 321.527344 522.847656 320.726562 532.957031 C 319.707031 545.921875 320.636719 558.964844 319.726562 572 C 318.625 587.707031 319.644531 603.5 318.675781 619.277344 C 317.535156 637.910156 318.34375 656.621094 317.757812 675.3125 C 317.101562 696.183594 316.703125 717.125 318.261719 738.042969 C 319.164062 750.152344 318.480469 762.335938 319.25 774.507812 C 320.027344 786.785156 320.976562 799.09375 321.25 811.375 C 321.347656 815.761719 321.671875 820.148438 321.988281 824.535156 C 322.96875 824.535156 323.945312 824.535156 324.925781 824.535156 C 324.566406 817.632812 324.09375 810.730469 323.65625 803.828125 C 322.777344 790.007812 322.269531 776.15625 321.578125 762.316406 C 320.769531 746.238281 321.59375 730.113281 320.582031 714 C 319.992188 704.636719 320.730469 695.191406 321.132812 685.769531 C 322.105469 663 320.835938 640.175781 322.277344 617.378906 C 323.214844 602.511719 322.128906 587.589844 323.234375 572.667969 C 324.289062 558.507812 323.707031 544.25 324.1875 530.027344 C 324.707031 514.625 325.8125 499.21875 325.527344 483.789062 C 325.484375 481.453125 327.398438 479.214844 325.605469 476.457031 Z M 615.898438 474.605469 C 614.730469 474.316406 613.5625 474.023438 612.390625 473.742188 C 607.597656 479.597656 602.808594 485.457031 598.039062 491.332031 C 589.085938 502.359375 580.109375 513.378906 571.378906 524.585938 C 561.277344 537.546875 551.34375 550.640625 541.746094 563.984375 C 531.550781 578.167969 523.386719 593.269531 519.0625 610.335938 C 515.871094 622.949219 513.5625 635.726562 511.464844 648.539062 C 509.507812 660.5 507.671875 672.5 506.367188 684.546875 C 505.226562 695.074219 503.8125 705.574219 502.78125 716.121094 C 501.386719 730.398438 499.988281 744.671875 498.804688 758.972656 C 498.292969 765.125 498.382812 771.304688 497.75 777.414062 C 496.652344 787.976562 496.632812 798.582031 495.921875 809.15625 C 495.578125 814.273438 495.941406 819.410156 495.726562 824.535156 C 496.816406 824.535156 497.902344 824.535156 498.988281 824.535156 C 499.085938 816.695312 499.125 808.847656 499.542969 800.992188 C 500.316406 786.472656 501.296875 771.957031 501.90625 757.425781 C 502.128906 752.121094 502.660156 746.824219 503.238281 741.582031 C 504.527344 729.875 505.554688 718.140625 506.882812 706.433594 C 508.292969 694.042969 509.839844 681.664062 511.503906 669.316406 C 513.417969 655.113281 515.757812 640.949219 518.402344 626.84375 C 522.234375 606.378906 529.09375 587.226562 541.117188 570.042969 C 552.316406 554.046875 564.15625 538.527344 576.296875 523.253906 C 588.542969 507.84375 600.761719 492.410156 613.527344 477.414062 C 614.324219 476.480469 615.109375 475.542969 615.898438 474.605469 Z M 624.941406 768.246094 C 624.097656 755.808594 623.527344 743.339844 622.789062 730.886719 C 622.136719 719.945312 620.859375 709.089844 619.230469 698.308594 C 615.984375 676.84375 611.261719 655.660156 605.175781 634.800781 C 604.863281 633.730469 605.121094 632.253906 603.332031 632.257812 C 602.003906 634.769531 602.035156 634.753906 602.714844 637.285156 C 607.507812 655.113281 611.960938 673.011719 614.921875 691.257812 C 617.140625 704.914062 618.816406 718.609375 619.808594 732.417969 C 620.261719 738.734375 620.105469 745.109375 620.90625 751.347656 C 622.234375 761.734375 622.242188 772.195312 622.476562 782.5625 C 622.796875 796.550781 622.859375 810.542969 622.839844 824.535156 C 623.855469 824.535156 624.867188 824.535156 625.882812 824.535156 C 626.042969 819.777344 626.289062 815.023438 626.675781 810.269531 C 627.042969 805.769531 625.839844 801.429688 625.734375 796.980469 C 625.511719 787.402344 625.59375 777.839844 624.941406 768.246094 Z M 725.785156 805.46875 C 725.054688 797.472656 724.476562 789.449219 723.414062 781.496094 C 722.035156 771.175781 720.042969 760.941406 718.667969 750.621094 C 716.589844 735.03125 713.773438 719.566406 711.011719 704.101562 C 707.460938 684.207031 702.097656 664.726562 695.957031 645.480469 C 689.292969 624.582031 682.1875 603.824219 673.945312 583.488281 C 671.070312 576.398438 667.5625 569.539062 663.167969 563.359375 C 661.53125 563.59375 660.945312 564.445312 661.378906 565.566406 C 661.996094 567.15625 662.828125 568.679688 663.707031 570.148438 C 666.707031 575.160156 669.289062 580.359375 671.5 585.773438 C 675.257812 594.980469 678.539062 604.355469 681.878906 613.714844 C 693 644.863281 702.988281 676.292969 708.621094 708.996094 C 712.707031 732.730469 716.640625 756.472656 719.914062 780.339844 C 721.929688 795.03125 723.214844 809.777344 724.164062 824.535156 C 725.164062 824.535156 726.160156 824.535156 727.15625 824.535156 C 726.792969 818.175781 726.363281 811.816406 725.785156 805.46875 Z M 427.515625 475.878906 C 425.78125 476.492188 425.792969 477.90625 425.769531 479.292969 C 425.671875 485.796875 425.476562 492.277344 424.878906 498.78125 C 424.144531 506.777344 424.304688 514.851562 423.933594 522.890625 C 423.21875 538.445312 422.765625 554.011719 421.722656 569.558594 C 421.195312 577.410156 421.527344 585.28125 420.785156 593.167969 C 419.90625 602.523438 420.492188 611.96875 419.753906 621.398438 C 418.75 634.195312 419.113281 647.089844 418.839844 659.929688 C 418.378906 681.511719 418.242188 703.121094 419.246094 724.746094 C 420.167969 744.578125 420.285156 764.453125 421.394531 784.300781 C 421.886719 793.179688 422.644531 802.058594 422.863281 810.972656 C 422.972656 815.472656 423.257812 820.023438 423.664062 824.535156 C 424.726562 824.535156 425.785156 824.535156 426.84375 824.535156 C 426.472656 819.34375 426.117188 814.148438 425.765625 808.957031 C 424.972656 797.183594 424.507812 785.390625 423.644531 773.617188 C 423.058594 765.597656 423.199219 757.542969 422.742188 749.496094 C 421.851562 733.765625 422.414062 717.976562 421.683594 702.199219 C 420.976562 686.980469 421.472656 671.699219 422.367188 656.449219 C 423.089844 644.140625 422.59375 631.800781 423.226562 619.453125 C 424.132812 601.679688 424.292969 583.859375 425.488281 566.085938 C 425.972656 558.917969 425.964844 551.722656 426.316406 544.542969 C 426.816406 534.289062 427.511719 524.019531 427.582031 513.746094 C 427.660156 502.429688 429.257812 491.171875 428.699219 479.847656 C 428.632812 478.480469 429.503906 476.6875 427.515625 475.878906 Z M 106.695312 603.421875 C 104.167969 607.1875 102.285156 611.324219 100.628906 615.609375 C 97.046875 624.882812 94.214844 634.398438 91.523438 643.949219 C 86.003906 663.546875 81.71875 683.429688 78.167969 703.46875 C 75.699219 717.421875 73.683594 731.449219 71.578125 745.460938 C 69.566406 758.839844 68.882812 772.304688 67.953125 785.742188 C 67.058594 798.671875 68.277344 811.601562 68.734375 824.535156 C 69.757812 824.535156 70.78125 824.535156 71.804688 824.535156 C 71.464844 816.730469 71.214844 808.917969 70.78125 801.121094 C 70.300781 792.53125 71.707031 784.039062 71.886719 775.476562 C 72.070312 766.785156 72.996094 758.082031 74.097656 749.449219 C 75.4375 738.957031 77.34375 728.539062 78.933594 718.082031 C 81.578125 700.675781 84.980469 683.414062 89.058594 666.296875 C 93.898438 645.980469 98.917969 625.703125 108.042969 606.742188 C 108.714844 605.34375 108.929688 604.117188 106.695312 603.421875 Z M 106.695312 603.421875 " fill-opacity="1" fill-rule="nonzero"/><path fill="#000000" d="M 715.695312 518.019531 C 681.972656 541.558594 654.890625 571.914062 628.589844 603.015625 C 609.179688 625.964844 591.246094 650.035156 575.695312 675.808594 C 574.457031 677.859375 573.339844 679.988281 572.078125 682.027344 C 562.984375 696.714844 558.277344 712.636719 556.585938 729.886719 C 554.269531 753.578125 550.707031 777.144531 547.699219 800.765625 C 546.855469 807.394531 546.085938 814.035156 545.261719 820.667969 C 545.097656 822 545.367188 823.445312 543.988281 824.964844 C 527.652344 824.964844 511.363281 824.964844 495.085938 824.964844 C 494.480469 823.242188 495.722656 822.257812 496.320312 821.128906 C 517.199219 781.574219 538.890625 742.425781 558.824219 702.402344 C 582.648438 654.554688 615.441406 613.402344 650.863281 574.023438 C 666.488281 556.648438 683.089844 540.214844 701.40625 525.617188 C 705.160156 522.621094 709.09375 519.847656 713.003906 517.054688 C 713.902344 516.414062 714.761719 515.335938 716.15625 515.863281 C 716.917969 516.789062 716.441406 517.5 715.695312 518.019531 Z M 149.34375 745.726562 C 147.09375 728.050781 145.035156 710.351562 142.640625 692.695312 C 141.929688 687.464844 141.886719 682.117188 140.113281 677.023438 C 131.09375 651.089844 119.886719 626.09375 107.738281 601.507812 C 101.816406 589.523438 95.566406 577.699219 88.363281 566.410156 C 87.433594 564.957031 86.875 562.976562 84.429688 562.601562 C 84.074219 564.1875 84.714844 564.832031 85.152344 565.550781 C 105.929688 599.617188 122.300781 635.773438 136.269531 673.074219 C 137.691406 676.867188 138.304688 680.589844 137.714844 684.621094 C 136.824219 690.714844 136.203125 696.84375 135.429688 702.957031 C 132.8125 723.664062 130.1875 744.371094 127.554688 765.074219 C 125.589844 780.519531 123.480469 795.945312 121.710938 811.414062 C 121.199219 815.886719 119.910156 820.371094 120.578125 825.152344 C 133.65625 824.941406 146.425781 825.472656 159.351562 824.832031 C 158.574219 818.265625 157.921875 812.320312 157.164062 806.386719 C 154.574219 786.164062 151.917969 765.949219 149.34375 745.726562 Z M 471.398438 459.125 C 464.390625 463.136719 457.082031 466.480469 449.507812 469.253906 C 422.214844 479.25 394.019531 483.105469 365.039062 481.648438 C 340.945312 480.4375 317.726562 476 296.746094 463.246094 C 296.039062 462.816406 295.15625 462.507812 294.480469 463.980469 C 297.832031 467.367188 302.253906 469.183594 306.511719 471.125 C 326.1875 480.097656 347.121094 483.351562 368.511719 484.234375 C 385.222656 484.925781 401.800781 483.433594 418.203125 480.316406 C 436.65625 476.804688 454.421875 471.183594 470.917969 462 C 472.65625 461.03125 474.707031 460.414062 475.984375 458.1875 C 473.777344 456.925781 472.621094 458.421875 471.398438 459.125 Z M 471.398438 459.125 " fill-opacity="1" fill-rule="nonzero"/><g clip-path="url(#3d17db4d73)"><g clip-path="url(#bd8df66060)"><g clip-path="url(#a39328c1cc)"><path fill="#ff54df" d="M 592.660156 469.699219 C 587.800781 477.761719 582.691406 485.160156 577.5 492.503906 C 565.988281 508.78125 553.734375 524.480469 540.527344 539.410156 C 538.074219 542.183594 537.808594 544.292969 539.375 547.699219 C 546.71875 563.675781 549.960938 580.71875 551.542969 598.113281 C 554.304688 628.433594 550.851562 658.007812 540.609375 686.714844 C 533.367188 707.015625 521.371094 724.40625 506.796875 740.003906 C 475.800781 773.171875 438.386719 796.21875 394.933594 809.230469 C 373.417969 815.671875 351.398438 818.824219 328.9375 815.484375 C 298.464844 810.949219 269.644531 801.609375 243.464844 784.957031 C 238.917969 782.066406 234.523438 778.941406 230.601562 775.273438 C 228.433594 773.246094 226.734375 772.96875 223.957031 774.203125 C 206.644531 781.902344 188.980469 788.730469 170.992188 794.707031 C 166.496094 796.199219 161.996094 797.671875 157.476562 799.09375 C 155.6875 799.660156 153.859375 800.207031 151.367188 799.425781 C 150.539062 787.203125 152.28125 774.855469 151.691406 762.371094 C 158.351562 759.566406 164.894531 756.851562 171.410156 754.0625 C 184.617188 748.410156 197.511719 742.089844 210.394531 735.738281 C 212.90625 734.503906 214.050781 732.972656 214.464844 730.089844 C 215.398438 723.617188 217.84375 717.710938 222.089844 712.511719 C 247.394531 681.507812 276.488281 654.382812 307.402344 629.144531 C 349.359375 594.894531 393.886719 564.476562 442.140625 539.695312 C 453.9375 533.636719 465.964844 528.066406 478.339844 523.261719 C 483.542969 521.242188 488.820312 519.671875 494.480469 520.183594 C 496.78125 520.390625 498.242188 519.351562 499.726562 517.714844 C 515.148438 500.722656 529.8125 483.125 542.714844 464.121094 C 544.109375 462.0625 545.441406 460.589844 548.292969 460.628906 C 557.582031 460.753906 582.746094 465.375 592.660156 469.699219 Z M 592.660156 469.699219 " fill-opacity="1" fill-rule="nonzero"/></g></g></g><g clip-path="url(#86c07512ae)"><g clip-path="url(#9f3d78de49)"><g clip-path="url(#8a8f5f738e)"><path fill="#b8a2e0" d="M 510.851562 670.832031 C 508.460938 687.828125 502.304688 703.425781 493.109375 717.878906 C 478.136719 741.417969 457.960938 759.042969 432.878906 771.140625 C 417.125 778.742188 400.390625 782.800781 383.019531 782.859375 C 363.59375 782.929688 345.585938 777.613281 330.304688 764.90625 C 326.285156 761.5625 322.886719 757.65625 319.617188 753.363281 C 320.71875 751.429688 322.199219 750.816406 323.71875 750.421875 C 341.542969 745.765625 358.183594 738.1875 374.375 729.625 C 401.140625 715.46875 425.980469 698.4375 448.8125 678.546875 C 460.125 668.6875 470.785156 658.121094 480.171875 646.390625 C 487.09375 637.738281 492.742188 628.246094 496.902344 617.925781 C 497.25 617.070312 497.402344 616.050781 499.109375 615.730469 C 502.171875 619.238281 504.15625 623.664062 506.003906 628.113281 C 511.722656 641.871094 512.914062 656.191406 510.851562 670.832031 Z M 510.851562 670.832031 " fill-opacity="1" fill-rule="nonzero"/></g></g></g><g clip-path="url(#9ba387e5b9)"><g clip-path="url(#bff91379ce)"><g clip-path="url(#d38c297415)"><path fill="#4f874d" d="M 503.765625 527.175781 C 499.542969 539.035156 495.21875 550.785156 488.511719 561.605469 C 486.066406 565.546875 484.171875 569.953125 481.523438 573.824219 C 475.433594 582.734375 469.222656 591.519531 462.425781 599.964844 C 455 609.191406 446.957031 617.753906 438.671875 626.101562 C 429.375 635.46875 419.4375 644.125 409.195312 652.515625 C 397.714844 661.921875 385.84375 670.710938 373.503906 678.832031 C 352.820312 692.4375 331.140625 704.304688 308.308594 714 C 293.800781 720.160156 279.132812 725.917969 263.917969 730.011719 C 252.863281 732.984375 241.875 736.398438 230.203125 737.429688 C 231.304688 738.902344 232.703125 737.65625 234.1875 738.605469 C 236.484375 747.164062 237.480469 756.394531 239.511719 765.804688 C 233.273438 766.546875 227.425781 767.246094 220.972656 768.015625 C 221.492188 758.230469 223.234375 748.953125 222.964844 739.648438 C 220.804688 738.613281 218.695312 740.1875 216.566406 739.101562 C 215.589844 737.640625 214.90625 735.972656 215.425781 733.699219 C 219.152344 733.039062 222.921875 733.671875 226.640625 733.140625 C 240.265625 731.203125 253.46875 727.585938 266.597656 723.613281 C 285.957031 717.757812 304.417969 709.632812 322.375 700.492188 C 342.761719 690.109375 362.308594 678.226562 380.84375 664.753906 C 386.453125 660.679688 391.898438 656.378906 397.511719 652.304688 C 406.546875 645.738281 414.921875 638.308594 423.148438 630.851562 C 431.632812 623.160156 439.863281 615.050781 447.414062 606.347656 C 452.152344 600.886719 457.054688 595.5625 461.65625 589.992188 C 469.847656 580.082031 477.273438 569.511719 483.558594 558.382812 C 489.882812 547.191406 495.582031 535.476562 498.125 522.613281 C 498.242188 522.023438 498.601562 521.480469 498.808594 521.003906 C 500.042969 520.667969 500.726562 521.515625 501.570312 521.855469 C 504.105469 522.875 504.667969 524.644531 503.765625 527.175781 Z M 323.082031 757.433594 C 326.394531 766.253906 328.710938 774.894531 332.285156 783.257812 C 338.417969 781.382812 344.109375 779.640625 350.804688 777.59375 C 345.539062 768.980469 340.714844 761.089844 335.832031 753.109375 C 331.285156 754.3125 327.085938 755.324219 323.082031 757.433594 Z M 323.082031 757.433594 " fill-opacity="1" fill-rule="nonzero"/></g></g></g><g clip-path="url(#a6df97ce62)"><g clip-path="url(#d729a434a6)"><g clip-path="url(#141af52fc1)"><path fill="#eae6ad" d="M 474.867188 719.992188 C 455.855469 733.671875 436.914062 747.597656 417.132812 761.195312 C 412.035156 753.457031 407.457031 746.511719 402.558594 739.082031 C 421.921875 725.214844 440.953125 711.585938 459.957031 697.972656 C 462.6875 700.027344 472.242188 714.089844 474.867188 719.992188 Z M 474.867188 719.992188 " fill-opacity="1" fill-rule="nonzero"/></g></g></g><g clip-path="url(#e8400f7006)"><g clip-path="url(#f3fc3843aa)"><g clip-path="url(#fc7e8f5350)"><path fill="#000000" d="M 499.894531 615.0625 C 503.28125 618.433594 503.316406 618.527344 501.359375 622.777344 C 496.777344 632.730469 490.90625 641.902344 484.210938 650.546875 C 468.199219 671.203125 448.914062 688.40625 427.835938 703.683594 C 396.816406 726.175781 363.109375 743.53125 326.953125 756.160156 C 326.355469 756.367188 325.75 756.546875 325.144531 756.726562 C 321.804688 757.722656 318.921875 755.824219 318.582031 752.390625 C 318.421875 750.769531 319.78125 750.808594 320.761719 750.457031 C 327.304688 748.121094 333.925781 745.988281 340.371094 743.417969 C 384.429688 725.859375 424.070312 701.332031 458.234375 668.265625 C 470.660156 656.238281 481.707031 643.050781 490.464844 628.066406 C 492.292969 624.933594 493.867188 621.648438 495.53125 618.421875 C 496.320312 616.886719 496.847656 615.191406 498.46875 613.996094 C 498.921875 614.332031 499.464844 614.636719 499.894531 615.0625 Z M 504.398438 528.492188 C 496.488281 553.578125 483.082031 575.632812 466.941406 596.140625 C 438.765625 631.941406 404.421875 660.777344 366 684.921875 C 334.414062 704.769531 300.867188 720.398438 265.042969 730.976562 C 252.152344 734.78125 239.046875 737.699219 225.769531 739.867188 C 223.730469 740.109375 221.695312 740.445312 219.648438 740.5625 C 218.332031 740.636719 216.679688 741.714844 215.730469 740.203125 C 214.46875 738.199219 213.710938 735.878906 213.710938 733.484375 C 213.710938 732.3125 214.945312 732.265625 215.910156 732.253906 C 218.90625 732.21875 221.878906 732.460938 224.894531 732.050781 C 250.777344 728.515625 275.40625 720.671875 299.183594 710.132812 C 357.289062 684.367188 408.140625 648.40625 450.777344 601.125 C 466.191406 584.027344 479.535156 565.441406 489.339844 544.492188 C 492.691406 537.328125 495.507812 529.957031 497.222656 522.199219 C 497.90625 519.101562 498.15625 519.03125 500.882812 520.402344 C 506.132812 523.042969 506.117188 523.039062 504.398438 528.492188 Z M 236.492188 734.441406 C 236.289062 733.671875 236.015625 732.84375 235.097656 732.746094 C 234.332031 732.664062 233.535156 732.800781 232.757812 732.886719 C 230.410156 733.152344 228.0625 733.441406 225.714844 733.722656 C 225.71875 733.773438 225.71875 733.828125 225.722656 733.878906 C 223.046875 734.007812 220.375 734.160156 217.695312 734.257812 C 216.078125 734.316406 215.933594 735.210938 216.332031 736.46875 C 216.792969 737.941406 217.496094 739.015625 219.34375 738.6875 C 224.621094 737.75 229.910156 736.875 235.191406 735.949219 C 235.980469 735.808594 236.777344 735.539062 236.492188 734.441406 Z M 255.46875 729.710938 C 255.179688 728.589844 254.539062 728.167969 253.394531 728.4375 C 248.777344 729.515625 244.15625 730.566406 239.542969 731.648438 C 238.582031 731.875 238.394531 732.59375 238.566406 733.460938 C 238.726562 734.25 238.953125 735.035156 239.949219 735.054688 C 240.574219 735.0625 241.203125 734.917969 241.914062 734.835938 C 245.976562 733.820312 250.109375 732.765625 254.253906 731.765625 C 255.441406 731.480469 255.757812 730.832031 255.46875 729.710938 Z M 279.226562 722.355469 C 278.683594 721.027344 277.703125 720.941406 276.527344 721.316406 C 270.695312 723.179688 264.863281 725.046875 259.03125 726.90625 C 257.832031 727.289062 257.105469 727.929688 257.554688 729.320312 C 257.957031 730.5625 258.898438 730.40625 259.914062 730.441406 C 265.910156 728.574219 271.910156 726.726562 277.898438 724.835938 C 279.074219 724.464844 279.792969 723.742188 279.226562 722.355469 Z M 301.710938 714.238281 C 301.304688 713.125 301.316406 711.503906 299.339844 712.304688 C 293.636719 714.609375 287.925781 716.902344 282.222656 719.21875 C 281.210938 719.628906 280.808594 720.351562 281.164062 721.476562 C 281.582031 722.792969 282.363281 723.246094 283.667969 722.753906 C 289.28125 720.648438 294.902344 718.558594 300.503906 716.417969 C 301.417969 716.066406 302.167969 715.441406 301.710938 714.238281 Z M 323.289062 704.539062 C 322.910156 702.484375 321.90625 701.847656 320.046875 702.710938 C 314.902344 705.089844 309.800781 707.578125 304.667969 709.988281 C 303.238281 710.660156 302.894531 711.621094 303.542969 713.035156 C 304.128906 714.328125 305.09375 714.503906 306.253906 713.980469 C 311.566406 711.578125 316.863281 709.148438 322.164062 706.730469 C 323.140625 706.285156 323.695312 705.644531 323.289062 704.539062 Z M 345.355469 691.691406 C 344.484375 689.980469 343.410156 690.042969 341.945312 690.867188 C 336.078125 694.167969 330.179688 697.414062 324.324219 700.667969 C 325.75 704.996094 325.753906 705 329.1875 703.351562 C 329.75 703.078125 330.304688 702.785156 330.859375 702.492188 C 335.292969 700.136719 339.691406 697.714844 344.167969 695.453125 C 346.015625 694.519531 346.238281 693.421875 345.355469 691.691406 Z M 366.082031 681.296875 C 365.785156 679.167969 363.875 677.652344 362.414062 678.53125 C 357.414062 681.539062 352.492188 684.664062 347.507812 687.695312 C 345.546875 688.890625 346.902344 690.09375 347.398438 691.292969 C 347.921875 692.546875 348.730469 692.925781 350 692.160156 C 354.992188 689.144531 360.003906 686.164062 365.007812 683.167969 C 365.710938 682.75 366.28125 682.242188 366.082031 681.296875 Z M 386.519531 667.863281 C 386.1875 665.882812 383.855469 663.984375 382.683594 664.769531 C 377.460938 668.253906 372.285156 671.8125 367.148438 675.421875 C 365.09375 676.867188 367.011719 678.1875 367.546875 679.464844 C 368.140625 680.875 369.105469 680.609375 370.183594 679.871094 C 375.242188 676.417969 380.324219 673.007812 385.394531 669.578125 C 386.042969 669.140625 386.734375 668.707031 386.519531 667.863281 Z M 405.757812 651.164062 C 405.113281 650.492188 404.546875 649.753906 403.742188 648.808594 C 398.109375 653.105469 392.609375 657.308594 387.09375 661.488281 C 385.957031 662.351562 385.957031 663.246094 386.789062 664.304688 C 387.460938 665.164062 387.855469 666.269531 389.386719 666.855469 C 394.589844 662.871094 399.949219 658.722656 405.363281 654.636719 C 406.8125 653.542969 407.050781 652.503906 405.757812 651.164062 Z M 426.910156 636.375 C 426.320312 635.53125 426.09375 635.105469 425.773438 634.773438 C 422.878906 631.757812 423.261719 631.9375 420.261719 634.5625 C 415.984375 638.304688 411.71875 642.070312 407.300781 645.640625 C 405.21875 647.328125 406.351562 648.476562 407.390625 649.9375 C 408.519531 651.527344 409.523438 651.324219 410.859375 650.160156 C 416.09375 645.601562 421.382812 641.113281 426.910156 636.375 Z M 443.765625 618.691406 C 443.007812 617.9375 442.191406 616.988281 441.238281 616.214844 C 440.21875 615.390625 439.519531 616.28125 438.859375 616.921875 C 434.679688 620.960938 430.558594 625.058594 426.324219 629.039062 C 424.898438 630.375 425.148438 631.328125 426.414062 632.507812 C 427.578125 633.59375 428.46875 634.929688 430.214844 633.15625 C 434.292969 629.015625 438.492188 624.996094 442.628906 620.914062 C 443.183594 620.367188 443.746094 619.792969 443.765625 618.691406 Z M 459.132812 598.511719 C 458.15625 597.535156 457.183594 596.9375 455.980469 598.285156 C 451.796875 602.964844 447.578125 607.609375 443.371094 612.265625 C 442.730469 612.976562 441.992188 613.734375 442.832031 614.683594 C 443.644531 615.605469 444.378906 616.679688 445.804688 617.042969 C 446.132812 616.847656 446.601562 616.695312 446.886719 616.378906 C 451.265625 611.457031 455.625 606.519531 459.984375 601.582031 C 461.269531 600.125 459.984375 599.367188 459.132812 598.511719 Z M 472.21875 580.410156 C 471.269531 579.511719 470.53125 580.042969 469.886719 580.867188 C 466.578125 585.097656 463.269531 589.324219 459.96875 593.5625 C 459.386719 594.308594 458.726562 595.117188 459.589844 596.054688 C 460.324219 596.847656 461.046875 597.707031 462.15625 598 C 462.46875 597.882812 462.851562 597.859375 463.027344 597.652344 C 466.941406 593.097656 470.632812 588.367188 473.875 583.316406 C 474.84375 581.804688 473.0625 581.210938 472.21875 580.410156 Z M 486.730469 563.046875 C 486.570312 562.082031 485.550781 561.589844 484.640625 561.078125 C 483.527344 560.453125 482.941406 561.21875 482.402344 562.0625 C 480.03125 565.777344 477.652344 569.488281 475.257812 573.1875 C 474.578125 574.246094 473.855469 575.277344 473.113281 576.296875 C 471.96875 577.867188 473.300781 578.519531 474.210938 579.320312 C 475.199219 580.191406 476.085938 580.296875 476.933594 579.058594 C 480.230469 574.253906 483.308594 569.3125 486.183594 564.242188 C 486.335938 563.972656 486.445312 563.675781 486.730469 563.046875 Z M 496.007812 544.765625 C 495.753906 543.59375 494.757812 543.402344 493.921875 543.035156 C 492.753906 542.527344 492.234375 543.253906 491.78125 544.164062 C 489.683594 548.355469 487.601562 552.558594 485.445312 556.722656 C 484.503906 558.546875 485.660156 559.277344 486.941406 560.003906 C 488.460938 560.863281 488.847656 559.550781 489.304688 558.644531 C 491.355469 554.601562 493.351562 550.53125 495.347656 546.464844 C 495.625 545.90625 495.804688 545.300781 496.007812 544.765625 Z M 499.460938 522.226562 C 497.933594 527.738281 496.46875 532.886719 494.4375 537.839844 C 493.890625 539.175781 493.1875 540.46875 495.167969 541.332031 C 497.449219 542.328125 497.882812 540.671875 498.421875 539.183594 C 499.824219 535.332031 501.261719 531.492188 502.542969 527.601562 C 503.59375 524.414062 503.503906 524.386719 499.460938 522.226562 Z M 337.824219 769.476562 C 335 769.738281 332.550781 772.613281 332.867188 775.292969 C 333.113281 777.351562 335.4375 779.179688 337.570312 778.996094 C 340.136719 778.777344 342.777344 775.585938 342.503906 773.039062 C 342.265625 770.800781 340.234375 769.257812 337.824219 769.476562 Z M 229.957031 756.765625 C 227.320312 756.996094 224.703125 759.914062 225.054688 762.230469 C 225.316406 763.96875 226.90625 765.058594 228.910156 764.875 C 231.609375 764.625 234.257812 761.761719 233.902344 759.476562 C 233.664062 757.96875 231.695312 756.617188 229.957031 756.765625 Z M 229.957031 756.765625 " fill-opacity="1" fill-rule="nonzero"/></g></g></g><g clip-path="url(#35d98fb676)"><path fill="#ff54df" d="M 529.460938 140.1875 C 528.40625 147.269531 527.21875 154.335938 526.125 161.414062 C 524.859375 169.640625 523.621094 177.871094 522.378906 186.097656 C 515.980469 187.375 437.109375 190.003906 359.785156 189.648438 C 281.167969 189.289062 204.070312 185.921875 196.890625 183.789062 C 198.457031 178.964844 207.816406 152.40625 211.421875 141.25 C 211.707031 140.363281 211.96875 139.460938 212.902344 138.511719 C 215.078125 139.328125 217.335938 139.75 219.761719 139.9375 C 225.523438 128.472656 231.785156 117.238281 238.847656 106.441406 C 253.714844 83.71875 272.125 64.410156 294.441406 48.917969 C 313.714844 35.539062 335.09375 27.082031 358.15625 22.835938 C 372.390625 20.21875 386.769531 18.996094 401.210938 19.769531 C 428.972656 21.253906 455.007812 28.4375 477.917969 44.753906 C 500.59375 60.902344 515.097656 82.519531 520.199219 110.007812 C 521.722656 118.230469 522.613281 126.601562 521.429688 135.015625 C 521.3125 135.839844 521.414062 136.691406 521.414062 137.550781 C 523.160156 138.453125 524.6875 137.546875 526.1875 137.257812 C 528.953125 136.722656 529.878906 137.371094 529.460938 140.1875 Z M 529.460938 140.1875 " fill-opacity="1" fill-rule="nonzero"/></g><path fill="#ff421f" d="M 489.742188 132.902344 C 488.726562 123.484375 486.875 114.246094 484.175781 105.179688 C 477.171875 81.652344 464.308594 61.445312 448.734375 42.738281 C 438.925781 30.964844 427.238281 23.625 413.484375 20.824219 C 409.433594 20.339844 405.34375 19.988281 401.210938 19.769531 C 399.792969 19.695312 398.378906 19.640625 396.960938 19.605469 C 396.808594 19.609375 396.660156 19.613281 396.503906 19.621094 C 388.96875 19.984375 381.421875 19.820312 373.890625 20.652344 C 370.722656 21.003906 367.550781 21.351562 364.398438 21.785156 C 362.316406 22.105469 360.234375 22.453125 358.15625 22.835938 C 356.878906 23.070312 355.609375 23.324219 354.34375 23.585938 C 352.402344 24.039062 350.476562 24.558594 348.574219 25.175781 C 320.832031 34.171875 296.910156 49.621094 275.765625 69.425781 C 259.753906 84.425781 246.382812 101.617188 234.96875 120.332031 C 230.347656 127.910156 226.015625 135.695312 223.679688 144.246094 C 219.929688 157.945312 216.390625 171.703125 212.839844 185.457031 C 213.609375 185.507812 214.410156 185.5625 215.230469 185.613281 C 216.34375 181.226562 217.457031 176.839844 218.570312 172.453125 C 219.78125 167.675781 221.191406 162.9375 222.121094 158.109375 C 223.035156 153.363281 225.101562 148.992188 226.082031 144.21875 C 226.839844 140.539062 228.5625 136.761719 230.429688 133.242188 C 245.378906 105.011719 264.789062 80.363281 289.734375 60.273438 C 309.511719 44.347656 331.394531 32.203125 355.917969 25.089844 C 360.007812 23.902344 364.121094 22.78125 368.398438 22.402344 C 362.464844 24.644531 356.445312 26.59375 350.679688 29.226562 C 326.355469 40.332031 305.65625 56.253906 287.941406 76.160156 C 273.558594 92.324219 261.21875 109.886719 251.164062 129.054688 C 248.160156 134.78125 245.5 140.710938 243.464844 146.757812 C 242.003906 151.097656 241.257812 155.824219 240.101562 160.347656 C 237.867188 169.113281 235.527344 177.855469 233.210938 186.601562 C 234.027344 186.640625 234.851562 186.679688 235.683594 186.714844 C 239.800781 170.628906 243.09375 154.308594 249.472656 138.832031 C 251.191406 134.671875 252.929688 130.574219 255.0625 126.636719 C 266.253906 105.957031 280.164062 87.28125 296.53125 70.382812 C 313.148438 53.230469 332.296875 39.726562 354.210938 30.203125 C 359.347656 27.972656 364.554688 25.8125 370.136719 24.839844 C 369.726562 25.527344 368.933594 25.589844 368.300781 25.894531 C 352.953125 33.234375 338.523438 41.929688 326.269531 53.902344 C 320.421875 59.617188 314.675781 65.414062 309.46875 71.730469 C 290.054688 95.289062 273.46875 120.53125 262.839844 149.351562 C 262.234375 150.988281 260.796875 152.660156 260.609375 154.117188 C 259.917969 159.488281 258.769531 164.726562 257.414062 169.953125 C 255.910156 175.765625 254.503906 181.605469 253.089844 187.441406 C 253.882812 187.472656 254.683594 187.503906 255.488281 187.53125 C 256.632812 182.839844 257.777344 178.140625 258.925781 173.449219 C 260.570312 166.75 262.714844 160.136719 263.835938 153.320312 C 265.253906 144.710938 270.863281 135.144531 274.984375 127.304688 C 287.742188 103.027344 303.214844 80.644531 322.410156 60.910156 C 332.71875 50.3125 344.078125 41.128906 357.21875 34.242188 C 357.632812 34.144531 357.921875 33.394531 358.449219 33.960938 C 358.335938 34.441406 357.945312 34.527344 357.546875 34.605469 C 347.671875 41.992188 338.785156 50.433594 330.8125 59.824219 C 319.203125 73.5 308.695312 87.96875 300.398438 103.898438 C 291.9375 120.144531 285.761719 137.285156 281.1875 155.019531 C 278.339844 166.046875 275.402344 177.074219 272.460938 188.105469 C 273.304688 188.132812 274.152344 188.15625 275.003906 188.183594 C 276.527344 182.421875 278.011719 176.652344 279.410156 170.867188 C 280.378906 166.859375 281.9375 163.125 282.71875 159.039062 C 284.234375 151.140625 286.925781 143.902344 289.386719 136.265625 C 301.210938 99.582031 322.382812 68.996094 350.644531 43.109375 C 357.605469 36.730469 365.566406 31.679688 374.199219 27.757812 C 374.4375 27.351562 374.757812 27.277344 375.15625 27.519531 C 374.988281 27.742188 374.816406 27.964844 374.644531 28.1875 C 367.792969 33.335938 360.828125 38.359375 354.828125 44.523438 C 341.328125 58.390625 331.355469 74.65625 323.1875 92.023438 C 317.222656 104.699219 312.164062 117.769531 308.132812 131.210938 C 306.597656 136.34375 304.382812 141.355469 303.546875 146.59375 C 302.714844 151.808594 299.757812 156.414062 299.742188 161.765625 C 299.738281 161.847656 299.722656 161.933594 299.699219 162.015625 C 298.535156 166.652344 297.5 171.324219 296.160156 175.910156 C 294.933594 180.097656 293.824219 184.363281 292.765625 188.664062 C 293.632812 188.6875 294.5 188.707031 295.371094 188.726562 C 295.855469 186.753906 296.332031 184.777344 296.804688 182.800781 C 299.222656 172.644531 302.171875 162.628906 304.496094 152.441406 C 307.835938 137.820312 312.785156 123.671875 318.15625 109.6875 C 322.066406 99.507812 326.6875 89.65625 331.882812 80.054688 C 343.480469 58.617188 358.882812 40.667969 379.679688 27.601562 C 383.183594 25.402344 386.699219 23.203125 390.925781 22.484375 C 390.535156 23.097656 390 23.511719 389.519531 23.984375 C 383.902344 29.488281 377.554688 34.191406 372.363281 40.179688 C 360.394531 53.992188 351.050781 69.445312 343.28125 85.875 C 340.691406 91.355469 338.640625 97.101562 336.496094 102.78125 C 334.328125 108.53125 331.96875 114.234375 330.527344 120.214844 C 329.144531 125.957031 326.429688 131.234375 325.175781 137.027344 C 324.046875 142.234375 322.152344 147.273438 320.84375 152.449219 C 320.339844 154.453125 319.921875 156.445312 319.257812 158.425781 C 318.316406 161.222656 317.875 164.191406 317.304688 167.101562 C 316.707031 170.140625 315.363281 173 314.75 176.054688 C 313.875 180.398438 312.988281 184.742188 312.101562 189.082031 C 313.050781 189.101562 314.003906 189.117188 314.957031 189.136719 C 316.140625 183.667969 317.320312 178.199219 318.550781 172.742188 C 323.351562 151.464844 329.960938 130.613281 336.285156 109.75 C 337.503906 105.730469 339.28125 101.929688 340.789062 98.039062 C 347.175781 81.574219 355.320312 66.003906 365.976562 51.835938 C 369.136719 47.628906 372.359375 43.464844 376.207031 39.808594 C 376.113281 40.421875 375.847656 40.917969 375.5625 41.40625 C 372.128906 47.34375 368.980469 53.441406 366.40625 59.785156 C 363.851562 66.097656 360.28125 71.949219 358.660156 78.707031 C 357.019531 85.550781 354.003906 92.007812 351.902344 98.75 C 350.917969 101.898438 349.75 105.171875 349.09375 108.261719 C 343.351562 135.242188 338.183594 162.335938 332.929688 189.414062 C 333.847656 189.425781 334.769531 189.4375 335.6875 189.449219 C 336.804688 183.941406 337.902344 178.429688 338.96875 172.914062 C 340.675781 164.101562 342.320312 155.28125 343.910156 146.445312 C 344.703125 142.03125 345.578125 137.617188 346.25 133.183594 C 346.769531 129.730469 348.539062 125.769531 348.539062 122.351562 C 351.820312 107.71875 355.820312 93.242188 361.019531 79.140625 C 366.460938 64.363281 372.480469 49.847656 381.308594 36.6875 C 383.789062 32.988281 386.515625 29.453125 390.453125 26.984375 C 390.496094 27.277344 390.582031 27.464844 390.53125 27.601562 C 386.09375 39.488281 380.71875 51.054688 377.960938 63.523438 C 377.1875 67.023438 369.027344 99.238281 368.390625 102.105469 C 366.613281 110.136719 364.953125 118.128906 363.664062 126.1875 C 362.632812 132.644531 361.667969 139.160156 360.734375 145.640625 C 360.191406 149.40625 359.351562 153.164062 359.101562 156.929688 C 358.378906 167.835938 356.296875 178.75 354.242188 189.617188 C 354.949219 189.625 355.652344 189.628906 356.355469 189.632812 C 358.265625 178.441406 360.179688 167.25 361.605469 155.976562 C 362.800781 146.515625 364.621094 137.132812 366.097656 127.703125 C 368.089844 114.976562 370.609375 102.347656 373.4375 89.796875 C 377.679688 70.953125 383.242188 52.472656 390.160156 34.421875 C 391.457031 31.035156 392.894531 27.707031 394.269531 24.335938 C 395.511719 24.992188 395.183594 25.917969 395.207031 26.71875 C 395.320312 30.515625 395.101562 34.292969 394.738281 38.074219 C 394.433594 41.246094 394.417969 44.445312 394.15625 47.617188 C 393.707031 53.019531 392.898438 58.402344 392.746094 63.808594 C 392.609375 68.578125 391.953125 73.285156 391.582031 78.019531 C 391.199219 82.964844 390.363281 87.878906 389.695312 92.804688 C 388.648438 100.523438 387.613281 108.242188 386.511719 115.949219 C 385.542969 122.753906 384.273438 129.519531 383.546875 136.347656 C 382.957031 141.878906 382.308594 147.398438 381.074219 152.800781 C 379.355469 160.332031 378.574219 167.992188 377.398438 175.59375 C 376.675781 180.261719 376.269531 184.980469 375.753906 189.679688 C 376.519531 189.679688 377.28125 189.679688 378.046875 189.679688 C 378.664062 184.949219 379.285156 180.21875 379.917969 175.492188 C 380.640625 170.097656 380.96875 164.609375 382.195312 159.332031 C 385.089844 146.890625 386.136719 134.191406 388.0625 121.617188 C 389.066406 115.058594 389.847656 108.46875 390.734375 101.894531 C 391.890625 93.339844 393.222656 84.808594 394.15625 76.234375 C 395.058594 67.953125 395.628906 59.636719 396.207031 51.324219 C 396.792969 42.894531 397.761719 34.476562 397.394531 25.996094 C 397.363281 25.261719 396.914062 24.269531 398.324219 23.625 C 400.511719 26.484375 401.367188 29.980469 402.269531 33.304688 C 404.746094 42.402344 405.527344 51.785156 405.894531 61.164062 C 406.425781 74.707031 406 88.257812 405.457031 101.792969 C 405.191406 108.335938 404.984375 114.894531 404.5625 121.441406 C 404.273438 125.945312 404.332031 130.554688 403.855469 135.023438 C 403.054688 142.488281 404.007812 150.085938 401.113281 157.480469 C 399.882812 160.632812 400.097656 164.808594 399.929688 168.550781 C 399.753906 172.636719 399.019531 176.683594 398.707031 180.773438 C 398.480469 183.722656 398.164062 186.660156 397.824219 189.601562 C 398.542969 189.59375 399.261719 189.589844 399.976562 189.585938 C 400.433594 185.457031 400.898438 181.332031 401.363281 177.203125 C 401.824219 173.113281 402.304688 169.027344 402.765625 164.941406 C 403.171875 161.347656 403.351562 157.835938 404.726562 154.277344 C 406.011719 150.953125 405.695312 146.984375 405.914062 143.289062 C 406.476562 133.847656 407.054688 124.402344 407.425781 114.949219 C 407.878906 103.523438 408.078125 92.089844 408.472656 80.660156 C 408.765625 72.089844 408.21875 63.53125 407.882812 54.980469 C 407.683594 49.890625 407.066406 44.785156 406.078125 39.730469 C 405.371094 36.113281 404.285156 32.578125 403.835938 28.859375 C 404.726562 29.859375 405.511719 30.898438 406.035156 32.058594 C 411.304688 43.757812 415.585938 55.746094 418.425781 68.328125 C 421.386719 81.453125 422.894531 94.699219 423.808594 108.058594 C 424.203125 113.777344 424.546875 119.507812 424.648438 125.238281 C 424.789062 133.042969 425.382812 140.894531 424.378906 148.648438 C 423.125 158.320312 422.316406 168.035156 421.386719 177.730469 C 421.015625 181.605469 420.683594 185.492188 420.355469 189.382812 C 421.171875 189.371094 421.976562 189.359375 422.785156 189.347656 C 423.167969 185.148438 423.507812 180.949219 423.835938 176.742188 C 424.179688 172.378906 424.496094 168.007812 424.960938 163.65625 C 425.527344 158.328125 426.683594 153.023438 426.796875 147.691406 C 427.082031 134.054688 426.796875 120.421875 425.980469 106.785156 C 425.34375 96.097656 424.371094 85.492188 422.269531 75.007812 C 420.039062 63.875 417.410156 52.84375 412.996094 42.316406 C 411.121094 37.84375 409.289062 33.355469 407.300781 28.898438 C 411.671875 32.523438 414.84375 37.148438 417.542969 41.910156 C 424.039062 53.363281 429.324219 65.410156 433.832031 77.785156 C 436.996094 86.472656 438.851562 95.515625 440.703125 104.535156 C 442.339844 112.503906 443.519531 120.542969 443.863281 128.722656 C 443.996094 131.902344 443.6875 135.203125 444.363281 138.261719 C 445.503906 143.445312 444.734375 148.613281 444.566406 153.703125 C 444.34375 160.320312 443.40625 166.964844 442.859375 173.585938 C 442.433594 178.738281 441.941406 183.894531 441.53125 189.054688 C 442.335938 189.039062 443.136719 189.023438 443.933594 189.011719 C 444.039062 187.648438 444.152344 186.285156 444.269531 184.921875 C 444.664062 180.46875 444.878906 175.992188 445.382812 171.566406 C 446.429688 162.402344 447.039062 153.214844 447.203125 144.011719 C 447.257812 141.09375 446.917969 138.117188 446.773438 135.167969 C 446.523438 130.113281 446.292969 125.042969 445.683594 120.027344 C 444.691406 111.898438 442.910156 103.898438 441.246094 95.875 C 437.175781 76.273438 429 58.304688 419.632812 40.800781 C 416.957031 35.796875 413.214844 31.480469 409.703125 27.054688 C 410.597656 26.410156 411.121094 27.085938 411.640625 27.375 C 415.984375 29.777344 419.617188 33.25 422.5 37.054688 C 433.050781 50.972656 442.007812 65.925781 449.921875 81.503906 C 455.199219 91.890625 458.921875 102.75 461.277344 114.160156 C 462.675781 120.960938 464.242188 127.738281 465.097656 134.613281 C 465.699219 139.457031 466.898438 144.21875 466.3125 149.289062 C 465.390625 157.265625 465.25 165.332031 464.742188 173.355469 C 464.421875 178.367188 464.257812 183.40625 463.605469 188.378906 C 463.597656 188.449219 463.589844 188.519531 463.582031 188.585938 C 464.375 188.566406 465.160156 188.546875 465.941406 188.527344 C 466.1875 184.285156 466.445312 180.042969 466.8125 175.808594 C 467.046875 173.113281 467.09375 170.417969 467.308594 167.730469 C 467.800781 161.59375 468.417969 155.46875 468.726562 149.324219 C 468.996094 144.011719 468.117188 138.777344 467.296875 133.523438 C 465.644531 122.9375 463.691406 112.429688 460.710938 102.121094 C 455.839844 85.285156 447.109375 70.316406 437.980469 55.578125 C 432.367188 46.511719 426.878906 37.308594 419 29.867188 C 416.070312 27.097656 412.492188 25.28125 408.671875 22.59375 C 416.835938 22.816406 423.546875 25.53125 429.699219 29.359375 C 438.835938 35.046875 446.121094 42.898438 452.664062 51.304688 C 458.902344 59.320312 464.425781 67.863281 469.476562 76.707031 C 477.003906 89.890625 482.164062 103.9375 485.164062 118.773438 C 486.359375 124.6875 486.777344 130.773438 487.949219 136.660156 C 489.222656 143.03125 488.617188 149.195312 488.035156 155.4375 C 487.554688 160.5625 486.707031 165.652344 486.15625 170.773438 C 485.546875 176.398438 485.160156 182.046875 484.546875 187.671875 C 484.535156 187.785156 484.519531 187.894531 484.507812 188.007812 C 485.246094 187.984375 485.976562 187.960938 486.695312 187.9375 C 486.710938 187.785156 486.726562 187.636719 486.742188 187.488281 C 487.527344 180.398438 488.378906 173.316406 489.191406 166.226562 C 489.855469 160.476562 490.539062 154.722656 491.140625 148.964844 C 491.34375 147.003906 491.570312 144.992188 491.355469 143.050781 C 490.980469 139.648438 490.105469 136.300781 489.742188 132.902344 Z M 358.527344 33.875 C 358.546875 33.757812 358.570312 33.640625 358.589844 33.523438 C 358.664062 33.542969 358.734375 33.5625 358.808594 33.582031 C 358.714844 33.679688 358.621094 33.777344 358.527344 33.875 Z M 370.230469 24.773438 C 370.242188 24.191406 370.617188 24.3125 371.007812 24.421875 C 370.917969 24.964844 370.53125 24.765625 370.230469 24.773438 Z M 512.464844 148.152344 C 511.707031 154.890625 510.582031 161.589844 509.621094 168.308594 C 508.71875 174.589844 507.820312 180.875 506.929688 187.160156 C 506.167969 187.195312 505.371094 187.230469 504.5625 187.265625 C 504.75 186.003906 504.9375 184.742188 505.121094 183.480469 C 505.917969 178 506.765625 172.523438 507.523438 167.039062 C 508.292969 161.445312 508.976562 155.84375 509.714844 150.25 C 510.050781 147.707031 510.09375 145.03125 510.78125 142.65625 C 512.148438 137.90625 510.886719 133.445312 510.066406 128.972656 C 508.921875 122.707031 507.367188 116.519531 505.625 110.363281 C 501.753906 96.667969 496.699219 83.542969 488.503906 71.796875 C 478.996094 58.164062 467.023438 47.035156 453.414062 37.578125 C 446.472656 32.753906 439.46875 28.050781 431.757812 24.429688 C 433.074219 24.617188 434.40625 24.800781 435.707031 25.058594 C 436.902344 25.378906 438.09375 25.710938 439.277344 26.0625 C 439.96875 26.332031 440.636719 26.648438 441.277344 27.035156 C 461.460938 39.203125 479.703125 53.558594 492.683594 73.636719 C 500.683594 86.011719 505.355469 99.769531 509.09375 113.882812 C 510.996094 121.058594 512.511719 128.328125 513.628906 135.664062 C 514.269531 139.875 512.929688 144 512.464844 148.152344 Z M 512.464844 148.152344 " fill-opacity="1" fill-rule="nonzero"/><path fill="#000000" d="M 527.789062 138.953125 C 524.472656 139.371094 521.152344 139.765625 517.828125 140.140625 C 490.210938 143.246094 462.445312 144.9375 434.671875 145.847656 C 407.421875 146.738281 380.144531 146.851562 352.878906 146.414062 C 329.148438 146.035156 305.421875 145.238281 281.714844 144.074219 C 265.089844 143.253906 248.46875 142.261719 231.863281 141.050781 C 225.542969 140.589844 219.214844 140.117188 212.902344 139.542969 C 211.585938 139.421875 211.578125 137.359375 212.902344 137.480469 C 213.003906 137.488281 213.121094 137.515625 213.222656 137.507812 C 215.570312 137.335938 218.21875 137.933594 220.554688 138.121094 C 225.914062 138.554688 231.273438 138.953125 236.632812 139.328125 C 254.296875 140.570312 271.976562 141.578125 289.664062 142.386719 C 314.011719 143.496094 338.382812 144.21875 362.757812 144.484375 C 390.25 144.785156 417.75 144.511719 445.222656 143.398438 C 472.808594 142.277344 500.386719 140.328125 527.789062 136.890625 C 529.109375 136.722656 529.09375 138.789062 527.789062 138.953125 Z M 527.789062 138.953125 " fill-opacity="1" fill-rule="nonzero"/><path fill="#ffffff" d="M 415.117188 267.257812 C 403.773438 282.167969 389.003906 288.40625 370.59375 284.800781 C 361.164062 282.953125 353.773438 277.617188 348.78125 269.148438 C 347.824219 267.523438 347.691406 266.203125 348.261719 264.535156 C 352.75 251.351562 362.183594 243.695312 375.355469 240.1875 C 378.316406 239.402344 381.328125 239.253906 384.414062 239.332031 C 398.375 239.492188 409.0625 245.210938 415.875 257.75 C 417.773438 261.242188 417.597656 264 415.117188 267.257812 Z M 265.929688 241.683594 C 256.007812 244.398438 248.742188 250.277344 244.660156 259.898438 C 243.738281 262.078125 244.003906 263.890625 245.308594 265.796875 C 253.601562 277.90625 265.167969 283.972656 276.851562 284.574219 C 290.539062 284.585938 298.277344 281.664062 305.039062 274.535156 C 312.027344 267.164062 311.753906 265.847656 307.136719 257.910156 C 298.875 243.722656 281.867188 237.324219 265.929688 241.683594 Z M 265.929688 241.683594 " fill-opacity="1" fill-rule="nonzero"/><path fill="#000000" d="M 309.507812 262.421875 C 311.191406 265.339844 310.851562 267.898438 308.644531 270.675781 C 299.96875 281.601562 288.8125 285.585938 275.03125 284.480469 C 267.808594 283.902344 264.164062 280.0625 261.644531 274.207031 C 257.617188 264.84375 257.664062 255.460938 261.585938 245.996094 C 263.117188 242.296875 265.632812 240.53125 269.480469 240.4375 C 271.75 240.382812 274.023438 240.425781 276.292969 240.425781 C 292.304688 240.25 302.097656 249.5625 309.507812 262.421875 Z M 415.867188 258.273438 C 409.335938 245.730469 398.898438 239.765625 384.34375 239.296875 C 381.285156 238.171875 378.957031 240.367188 376.6875 242.730469 C 370.710938 248.964844 367.910156 256.574219 367.839844 265.027344 C 367.777344 272.027344 369.789062 278.511719 375.027344 283.617188 C 376.617188 285.167969 378.339844 285.953125 380.671875 285.917969 C 395.746094 285.675781 406.734375 278.101562 415.621094 266.691406 C 417.730469 263.980469 417.445312 261.304688 415.867188 258.273438 Z M 415.867188 258.273438 " fill-opacity="1" fill-rule="nonzero"/><path fill="#ff54df" d="M 355.445312 364.359375 C 350.945312 367.421875 346.382812 370.207031 341.050781 371.738281 C 327.386719 375.65625 315.976562 371.136719 304.800781 362.730469 C 312.703125 355.773438 321.902344 354.785156 330.863281 353.238281 C 334.21875 352.660156 337.46875 352.582031 340.933594 354.027344 C 345.207031 355.808594 349.945312 356.472656 354.484375 357.617188 C 356.292969 358.070312 358.117188 358.613281 358.371094 360.816406 C 358.617188 362.90625 356.820312 363.425781 355.445312 364.359375 Z M 355.445312 364.359375 " fill-opacity="1" fill-rule="nonzero"/><g clip-path="url(#cc4e309a6e)"><path fill="#000000" d="M 350.582031 337.300781 C 346.210938 338.144531 342.316406 340.179688 338.335938 342.007812 C 332.484375 344.695312 326.691406 344.933594 320.890625 341.824219 C 319.433594 341.039062 317.875 340.398438 316.304688 339.871094 C 312.492188 338.59375 308.640625 338.265625 304.699219 339.460938 C 302.019531 340.273438 300.179688 341.90625 299.289062 344.5 C 298.238281 347.558594 297.992188 350.640625 298.890625 353.863281 C 300.789062 360.675781 304.867188 365.679688 311.003906 369.03125 C 317.496094 372.570312 324.574219 374.027344 331.8125 374.699219 C 344.015625 374.070312 354.050781 369.195312 361.785156 359.773438 C 363.324219 357.898438 364.398438 355.730469 365.089844 353.355469 C 368.082031 343.054688 361.0625 335.28125 350.582031 337.300781 Z M 307.003906 363.230469 C 315.980469 353.921875 344.472656 353.25 356.6875 361.503906 C 343.78125 377.199219 318.3125 374.167969 307.003906 363.230469 Z M 429.140625 229.421875 C 428.054688 231.804688 425.371094 232.398438 421.585938 230.71875 C 409.910156 225.535156 397.839844 221.722656 385.195312 219.78125 C 378.289062 218.722656 371.347656 218.039062 364.378906 218.457031 C 360.378906 218.699219 358.066406 217.113281 357.8125 214.472656 C 357.53125 211.546875 359.65625 210.0625 364.289062 209.929688 C 366.558594 209.863281 368.832031 209.917969 371.28125 209.917969 C 389.980469 210.554688 407.871094 215.253906 425.027344 222.976562 C 428.847656 224.699219 430.25 226.992188 429.140625 229.421875 Z M 284.582031 217.882812 C 269.503906 219.023438 254.910156 222.023438 241.097656 228.398438 C 237.144531 230.222656 234.726562 229.703125 233.539062 227.234375 C 232.320312 224.699219 233.582031 222.605469 237.460938 220.777344 C 253.054688 213.441406 269.617188 210.238281 286.710938 209.339844 C 288.511719 209.246094 290.355469 209.121094 292.128906 209.679688 C 294.550781 210.4375 295.90625 212.257812 295.53125 214.359375 C 295.128906 216.628906 293.578125 217.742188 291.390625 217.855469 C 289.125 217.972656 286.851562 217.882812 284.582031 217.882812 Z M 386.351562 238.226562 C 368.046875 238.113281 352.902344 248.46875 347.621094 263.140625 C 346.648438 265.847656 346.945312 268.007812 348.441406 270.355469 C 353.035156 277.558594 359.414062 282.394531 367.503906 284.972656 C 385.34375 290.65625 406.167969 282.765625 416.773438 266.554688 C 418.585938 263.789062 418.667969 261.425781 417.269531 258.566406 C 410.566406 244.851562 399.164062 238.828125 386.351562 238.226562 Z M 414.644531 265.90625 C 404.515625 280.914062 385.085938 288.226562 368.394531 283.027344 C 361.054688 280.742188 355.222656 276.398438 350.8125 270.054688 C 349.167969 267.691406 348.976562 265.558594 350.03125 262.863281 C 355.234375 249.5625 369.160156 240.371094 387.308594 240.363281 C 398.019531 240.917969 408.636719 246.339844 415.03125 258.824219 C 416.324219 261.34375 416.339844 263.390625 414.644531 265.90625 Z M 309.71875 270.730469 C 311.625 268.027344 311.890625 265.496094 310.632812 262.328125 C 305.144531 248.535156 291.171875 239.148438 275.691406 239.144531 C 261.183594 239.144531 248.601562 247.199219 243.558594 259.5625 C 242.609375 261.890625 242.671875 263.726562 244.105469 265.882812 C 251.695312 277.285156 262.226562 284.140625 275.773438 285.609375 C 289.730469 287.121094 301.390625 282.5625 309.71875 270.730469 Z M 279.214844 284.019531 C 265.570312 283.09375 254.265625 277.117188 246.128906 265.269531 C 244.691406 263.179688 244.828125 261.496094 245.820312 259.433594 C 250.90625 248.832031 259.597656 243.175781 270.925781 241.402344 C 285.71875 239.089844 301.324219 247.601562 307.84375 260.960938 C 309.753906 264.871094 309.535156 267.9375 306.800781 271.332031 C 299.804688 280.003906 290.621094 283.691406 279.214844 284.019531 Z M 313.453125 306.269531 C 313.195312 302.304688 313.808594 298.347656 314.832031 294.523438 C 315.199219 293.160156 317.441406 282.964844 319.082031 283.996094 C 320.097656 284.632812 317.578125 292.332031 317.351562 293.152344 C 316.113281 297.675781 314.757812 302.828125 316.09375 307.480469 C 316.925781 310.378906 319.140625 312.726562 321.800781 314.070312 C 322.382812 314.363281 323.777344 314.917969 325.34375 315.296875 C 327.015625 315.695312 328.847656 315.929688 328.9375 316.6875 C 329.015625 317.320312 328.09375 317.628906 327.085938 317.757812 C 324.214844 318.117188 321.058594 316.832031 318.734375 315.222656 C 315.765625 313.167969 313.691406 309.910156 313.453125 306.269531 Z M 313.453125 306.269531 " fill-opacity="1" fill-rule="nonzero"/></g></svg>