<svg xmlns="http://www.w3.org/2000/svg" xmlns:xlink="http://www.w3.org/1999/xlink" width="1080" zoomAndPan="magnify" viewBox="0 0 810 809.999993" height="1080" preserveAspectRatio="xMidYMid meet" version="1.0"><defs><clipPath id="a87998915d"><path d="M 0 670.140625 L 810 670.140625 L 810 810 L 0 810 Z M 0 670.140625 " clip-rule="nonzero"/></clipPath><clipPath id="f46a9024a6"><path d="M 6 621 L 335 621 L 335 810 L 6 810 Z M 6 621 " clip-rule="nonzero"/></clipPath><clipPath id="20a2601ee0"><path d="M -60.410156 718.53125 L 222.855469 561.257812 L 361.199219 810.429688 L 77.929688 967.703125 Z M -60.410156 718.53125 " clip-rule="nonzero"/></clipPath><clipPath id="0a2966d5b4"><path d="M -60.410156 718.53125 L 222.855469 561.257812 L 361.199219 810.429688 L 77.929688 967.703125 Z M -60.410156 718.53125 " clip-rule="nonzero"/></clipPath><clipPath id="a7f18f07d8"><path d="M 0 101 L 132 101 L 132 414 L 0 414 Z M 0 101 " clip-rule="nonzero"/></clipPath><clipPath id="af52f5701c"><path d="M 134.34375 81 L 150.421875 404.597656 L -134.226562 418.738281 L -150.304688 95.140625 Z M 134.34375 81 " clip-rule="nonzero"/></clipPath><clipPath id="b7665f0ba0"><path d="M 134.34375 81 L 150.421875 404.597656 L -134.226562 418.738281 L -150.304688 95.140625 Z M 134.34375 81 " clip-rule="nonzero"/></clipPath><clipPath id="c3c80ff09d"><path d="M 675 375 L 810 375 L 810 696 L 675 696 Z M 675 375 " clip-rule="nonzero"/></clipPath><clipPath id="8f31061c12"><path d="M 594.34375 508.40625 L 845.015625 303.128906 L 1025.582031 523.628906 L 774.910156 728.90625 Z M 594.34375 508.40625 " clip-rule="nonzero"/></clipPath><clipPath id="b3acb619c7"><path d="M 594.34375 508.40625 L 845.015625 303.128906 L 1025.582031 523.628906 L 774.910156 728.90625 Z M 594.34375 508.40625 " clip-rule="nonzero"/></clipPath><clipPath id="2bbb69c6d2"><path d="M 475 0 L 783 0 L 783 134 L 475 134 Z M 475 0 " clip-rule="nonzero"/></clipPath><clipPath id="fd94c51cc3"><path d="M 710.085938 186.101562 L 405 77.019531 L 500.953125 -191.34375 L 806.039062 -82.261719 Z M 710.085938 186.101562 " clip-rule="nonzero"/></clipPath><clipPath id="3e97d68dfb"><path d="M 710.085938 186.101562 L 405 77.019531 L 500.953125 -191.34375 L 806.039062 -82.261719 Z M 710.085938 186.101562 " clip-rule="nonzero"/></clipPath></defs><rect x="-81" width="972" fill="#ffffff" y="-80.999999" height="971.999992" fill-opacity="1"/><rect x="-81" width="972" fill="#5fab9d" y="-80.999999" height="971.999992" fill-opacity="1"/><path fill="#ffdcca" d="M 553.351562 340.132812 C 547.265625 358.769531 528.875 372.3125 506.136719 375.171875 C 498.679688 402.503906 488.121094 433.070312 470.351562 455.183594 C 471.71875 465 471.097656 479.910156 473.210938 490.71875 C 476.316406 506.621094 481.90625 518.425781 480.914062 530.601562 C 480.167969 539.792969 466.75 553.335938 461.28125 560.046875 C 435.933594 590.734375 396.546875 612.226562 362.128906 581.167969 C 356.660156 576.320312 351.691406 570.980469 347.09375 565.265625 C 341.003906 557.808594 332.679688 547.25 331.066406 537.308594 C 330.195312 531.59375 335.414062 523.644531 337.152344 518.425781 C 341.128906 506.871094 344.109375 495.191406 345.355469 483.015625 C 346.347656 473.199219 346.347656 463.382812 345.726562 453.570312 C 343.367188 451.085938 341.003906 448.597656 338.890625 446.113281 C 324.230469 428.597656 314.289062 409.339844 308.203125 389.210938 C 275.027344 379.023438 247.316406 329.199219 266.203125 297.519531 C 274.902344 283.105469 294.410156 295.40625 301.988281 306.960938 C 303.851562 289.691406 307.332031 272.421875 312.054688 255.398438 C 319.011719 230.054688 332.554688 207.441406 349.207031 187.316406 C 351.9375 183.960938 360.265625 170.664062 365.484375 170.042969 L 383.746094 155.878906 C 431.089844 147.804688 422.761719 225.085938 440.65625 250.304688 C 451.09375 265.089844 471.347656 272.171875 487.625 278.136719 C 496.195312 281.367188 508.375 284.101562 513.34375 292.550781 C 514.335938 294.164062 515.082031 295.902344 515.703125 297.765625 C 516.078125 297.269531 516.449219 296.898438 516.699219 296.523438 C 524.277344 287.207031 537.945312 280.375 548.011719 290.4375 C 556.085938 298.386719 556.582031 330.566406 553.351562 340.132812 Z M 553.351562 340.132812 " fill-opacity="1" fill-rule="evenodd"/><path fill="#ffc000" d="M 733.394531 739.703125 L 81.191406 737.839844 C 81.191406 737.839844 72.371094 666.769531 109.769531 595.953125 C 120.332031 575.949219 258.5 544.144531 333.425781 518.050781 C 340.011719 515.691406 408.722656 590.859375 408.722656 590.859375 L 479.917969 515.566406 C 479.917969 515.566406 689.410156 589.242188 711.652344 618.441406 C 737.621094 652.484375 733.394531 739.703125 733.394531 739.703125 Z M 278.753906 292.550781 C 285.710938 292.921875 288.695312 306.710938 292.421875 311.929688 C 293.539062 313.421875 297.144531 321.125 299.878906 320.503906 C 302.859375 319.757812 303.480469 311.929688 303.851562 309.820312 C 306.339844 298.015625 308.574219 286.335938 312.425781 274.78125 C 325.347656 236.390625 360.265625 209.429688 370.453125 170.542969 C 445.5 151.53125 415.679688 222.101562 424.253906 249.808594 C 430.714844 270.433594 453.453125 294.289062 462.773438 300.996094 C 467.371094 304.226562 463.269531 283.726562 467.617188 286.957031 C 471.84375 290.0625 478.054688 296.523438 483.648438 297.269531 C 487.746094 297.765625 491.847656 286.585938 493.835938 281.492188 C 494.707031 287.578125 494.828125 293.792969 494.207031 299.878906 C 494.085938 301.246094 491.972656 306.710938 492.71875 308.078125 C 493.214844 308.824219 497.5625 304.726562 497.9375 304.476562 C 501.539062 301.246094 505.019531 297.644531 507.753906 293.667969 C 509.863281 297.023438 512.226562 300.128906 514.585938 301.992188 C 515.332031 302.613281 521.792969 308.328125 523.035156 307.335938 C 523.78125 306.589844 521.792969 297.765625 521.667969 296.898438 C 521.542969 296.027344 521.542969 295.15625 521.417969 294.414062 C 523.53125 293.046875 526.886719 289.195312 529.992188 288.078125 C 532.230469 287.332031 534.589844 286.832031 536.953125 287.578125 C 538.195312 287.953125 546.144531 294.289062 547.140625 290.683594 C 549.253906 282.980469 577.707031 233.78125 554.347656 191.539062 C 526.636719 140.972656 446.121094 97.734375 419.65625 98.230469 C 396.671875 98.605469 375.296875 105.3125 356.660156 135.878906 C 356.410156 136.375 356.164062 136.996094 355.914062 137.617188 C 343.488281 133.515625 327.832031 138.363281 316.652344 143.207031 C 270.054688 163.832031 249.304688 215.640625 244.210938 265.710938 C 241.105469 295.53125 261.855469 318.019531 261.855469 318.019531 C 261.855469 318.019531 273.535156 292.300781 278.753906 292.550781 Z M 402.511719 322.988281 C 396.792969 324.105469 383.625 353.304688 388.34375 361.378906 C 390.953125 365.730469 402.386719 376.910156 408.351562 375.046875 C 414.4375 373.183594 422.265625 356.90625 422.390625 354.796875 C 422.515625 351.566406 408.226562 321.871094 402.511719 322.988281 Z M 402.511719 322.988281 " fill-opacity="1" fill-rule="evenodd"/><path fill="#000000" d="M 629.519531 627.011719 C 629.148438 626.515625 628.277344 626.390625 627.78125 626.890625 C 618.710938 634.59375 611.75 643.039062 606.285156 652.234375 C 601.191406 660.683594 597.214844 669.753906 593.609375 679.320312 C 591.375 685.40625 589.261719 691.621094 587.027344 698.082031 C 585.535156 702.304688 584.167969 706.652344 582.925781 711.003906 C 581.683594 715.351562 580.5625 719.699219 579.695312 724.171875 C 579.445312 725.664062 579.074219 727.03125 578.949219 728.519531 C 578.699219 730.011719 578.453125 731.503906 578.328125 732.867188 C 578.203125 733.492188 578.578125 735.105469 578.578125 736.097656 C 578.203125 736.347656 578.078125 736.96875 578.203125 737.464844 C 578.453125 738.085938 578.699219 738.335938 578.824219 738.335938 C 579.320312 738.585938 580.5625 738.832031 580.8125 737.34375 C 580.9375 736.71875 580.8125 734.234375 580.9375 733.242188 C 581.0625 731.875 581.308594 730.382812 581.558594 729.015625 C 581.808594 727.652344 582.054688 726.160156 582.429688 724.792969 C 583.171875 721.316406 584.042969 717.835938 585.039062 714.480469 C 586.527344 709.386719 588.144531 704.167969 589.882812 699.199219 C 592.121094 692.863281 594.230469 686.652344 596.46875 680.5625 C 599.949219 671.121094 603.800781 662.175781 608.644531 653.851562 C 613.988281 644.90625 620.449219 636.457031 629.269531 628.878906 C 629.769531 628.378906 629.894531 627.511719 629.519531 627.011719 Z M 578.453125 736.96875 C 578.203125 736.96875 578.578125 736.597656 578.699219 736.472656 C 578.578125 736.722656 578.578125 736.96875 578.453125 736.96875 Z M 292.792969 332.308594 C 290.433594 329.945312 287.949219 327.710938 285.214844 325.722656 C 283.972656 324.851562 282.730469 323.984375 281.363281 323.238281 C 279.996094 322.492188 278.628906 321.871094 277.261719 321.25 C 276.765625 321 275.273438 321 274.28125 320.875 C 274.03125 320.503906 273.660156 320.378906 273.285156 320.378906 C 272.417969 320.378906 272.042969 320.875 272.042969 321 C 271.921875 321.25 271.546875 322.617188 272.914062 322.988281 C 273.039062 322.988281 273.164062 322.988281 273.285156 323.113281 C 273.285156 323.113281 273.285156 322.988281 273.285156 322.988281 C 273.410156 322.988281 273.660156 322.988281 273.785156 322.863281 C 273.660156 322.988281 273.535156 323.113281 273.410156 323.113281 C 274.28125 323.238281 275.648438 323.609375 276.144531 323.859375 C 277.386719 324.480469 278.753906 325.226562 279.871094 325.96875 C 281.113281 326.714844 282.234375 327.460938 283.476562 328.332031 C 283.847656 328.578125 284.097656 328.828125 284.34375 329.078125 C 284.222656 329.324219 284.097656 329.574219 284.222656 329.945312 C 284.222656 330.320312 284.46875 330.566406 284.84375 330.816406 C 284.84375 331.066406 284.71875 331.4375 284.71875 331.6875 C 284.59375 332.429688 284.46875 333.175781 284.59375 333.796875 C 284.84375 335.164062 284.964844 336.40625 285.214844 337.773438 C 285.464844 339.015625 285.710938 340.382812 285.960938 341.625 C 286.332031 343.738281 286.707031 345.972656 287.203125 348.085938 C 287.824219 351.316406 288.445312 354.546875 289.066406 357.777344 C 289.5625 360.136719 290.0625 362.375 290.558594 364.734375 C 290.683594 365.355469 291.304688 365.851562 291.925781 365.730469 C 292.546875 365.605469 293.042969 364.984375 292.917969 364.363281 C 291.925781 359.019531 291.304688 353.554688 290.308594 348.085938 C 289.9375 345.726562 289.441406 343.488281 288.941406 341.128906 L 287.328125 333.425781 C 287.203125 333.050781 287.328125 332.429688 287.453125 331.808594 C 287.453125 331.808594 287.453125 331.6875 287.453125 331.6875 C 288.570312 332.679688 289.8125 333.796875 290.804688 334.792969 C 294.285156 338.148438 297.515625 341.75 300.871094 345.351562 C 301.242188 345.847656 302.113281 345.847656 302.484375 345.476562 C 302.984375 344.980469 302.984375 344.234375 302.609375 343.738281 C 299.378906 339.636719 296.273438 335.785156 292.792969 332.308594 Z M 273.535156 320.503906 C 273.535156 320.378906 273.785156 320.628906 273.785156 320.628906 C 273.90625 320.753906 273.90625 320.753906 274.03125 320.875 C 273.660156 320.753906 273.410156 320.628906 273.535156 320.503906 Z M 273.285156 322.988281 L 273.410156 322.988281 C 273.285156 323.113281 273.285156 323.113281 273.285156 322.988281 Z M 516.945312 332.429688 C 516.945312 332.554688 516.945312 332.679688 516.945312 332.679688 C 516.824219 332.554688 516.824219 332.429688 516.945312 332.429688 Z M 545.152344 305.59375 C 545.402344 306.214844 545.277344 306.960938 544.65625 307.210938 C 540.429688 309.570312 536.453125 312.304688 532.851562 315.410156 C 532.230469 315.90625 531.734375 316.402344 531.113281 317.023438 C 531.234375 317.148438 531.359375 317.523438 531.359375 317.894531 C 531.359375 318.144531 531.113281 319.136719 530.988281 319.511719 L 530.492188 321.996094 L 529.371094 328.828125 C 529 330.691406 528.75 332.679688 528.378906 334.542969 C 528.003906 336.40625 527.757812 338.394531 527.382812 340.257812 C 526.636719 344.109375 525.894531 347.835938 525.023438 351.566406 C 524.898438 352.1875 524.277344 352.683594 523.65625 352.558594 C 523.035156 352.433594 522.539062 351.8125 522.664062 351.191406 C 523.65625 345.851562 524.277344 340.507812 525.148438 335.289062 C 525.519531 333.050781 526.015625 330.691406 526.390625 328.457031 L 527.757812 321.621094 L 528.128906 319.882812 C 527.882812 320.132812 527.632812 320.378906 527.382812 320.503906 C 525.644531 322.242188 524.027344 323.984375 522.414062 325.722656 C 522.042969 326.09375 517.941406 330.445312 516.824219 332.429688 C 516.824219 332.429688 516.824219 332.429688 516.824219 332.554688 C 516.824219 332.429688 516.699219 332.308594 516.574219 332.183594 C 516.699219 332.308594 516.699219 332.429688 516.699219 332.554688 C 516.699219 332.554688 516.574219 332.679688 516.699219 332.679688 C 516.699219 333.050781 516.574219 333.425781 516.203125 333.796875 C 515.703125 334.171875 514.835938 334.171875 514.460938 333.671875 C 514.214844 333.425781 514.089844 332.929688 514.214844 332.183594 C 514.335938 331.6875 514.585938 331.066406 515.082031 330.320312 C 516.574219 327.957031 519.804688 324.230469 520.175781 323.859375 C 521.792969 321.996094 523.40625 320.132812 525.148438 318.390625 C 526.886719 316.652344 528.75 314.914062 530.738281 313.421875 C 534.589844 310.316406 538.816406 307.582031 543.414062 305.347656 C 544.15625 304.726562 544.902344 304.972656 545.152344 305.59375 Z M 295.652344 222.847656 C 298.511719 211.167969 302.984375 199.492188 309.195312 188.804688 C 312.300781 183.464844 315.78125 178.367188 319.757812 173.773438 C 323.734375 169.050781 328.207031 164.828125 333.050781 160.976562 C 333.796875 160.355469 334.417969 159.855469 335.164062 159.484375 C 335.910156 158.988281 336.53125 158.488281 337.277344 157.992188 C 340.257812 156.003906 347.589844 151.65625 353.179688 151.53125 C 356.289062 151.40625 358.898438 152.527344 360.140625 155.507812 C 360.386719 156.128906 360.140625 156.875 359.519531 157.125 C 358.898438 157.371094 358.152344 157.125 357.902344 156.503906 C 356.785156 153.894531 354.050781 153.769531 351.195312 154.390625 C 346.472656 155.507812 341.253906 158.738281 338.890625 160.355469 C 338.148438 160.851562 337.527344 161.347656 336.90625 161.71875 C 336.28125 162.21875 335.660156 162.714844 334.917969 163.210938 C 330.195312 166.9375 325.96875 171.164062 322.117188 175.636719 C 318.265625 180.234375 314.789062 185.078125 311.804688 190.171875 C 305.59375 200.484375 301.121094 211.914062 298.136719 223.34375 C 298.011719 223.964844 297.269531 224.339844 296.644531 224.214844 C 296.023438 224.089844 295.527344 223.46875 295.652344 222.847656 Z M 352.558594 167.808594 C 351.070312 169.050781 349.703125 170.292969 348.460938 171.535156 C 346.597656 173.398438 344.855469 175.386719 343.117188 177.375 C 341.5 179.488281 339.886719 181.597656 338.519531 183.710938 C 335.660156 188.058594 333.175781 192.65625 330.941406 197.503906 C 330.691406 198.125 330.941406 198.871094 331.5625 199.117188 C 332.183594 199.367188 332.929688 199.117188 333.175781 198.496094 C 335.539062 193.898438 338.148438 189.550781 341.003906 185.328125 C 342.496094 183.214844 343.988281 181.226562 345.601562 179.238281 C 347.21875 177.25 348.832031 175.386719 350.695312 173.523438 C 351.9375 172.28125 353.179688 171.039062 354.546875 169.796875 C 355.914062 168.679688 357.28125 167.558594 358.773438 166.691406 C 358.773438 166.691406 360.886719 165.449219 362.003906 165.199219 C 362.128906 165.324219 362.128906 165.324219 362.25 165.449219 C 362.875 165.820312 363.617188 165.695312 363.992188 165.074219 C 364.488281 164.328125 364.238281 163.707031 363.867188 163.335938 C 363.617188 163.085938 363.246094 162.839844 362.625 162.839844 C 361.382812 162.839844 357.40625 164.207031 357.28125 164.328125 C 355.667969 165.449219 354.050781 166.566406 352.558594 167.808594 Z M 362.625 165.570312 C 362.625 165.820312 362.25 165.570312 362.128906 165.324219 C 362.375 165.324219 362.625 165.324219 362.625 165.570312 Z M 370.949219 172.15625 C 371.445312 171.785156 371.570312 171.039062 371.324219 170.542969 C 371.324219 170.542969 371.199219 170.542969 371.324219 170.417969 C 371.324219 170.292969 371.445312 170.167969 371.445312 169.921875 C 371.695312 169.050781 372.316406 168.058594 373.0625 166.9375 C 374.800781 164.207031 377.285156 161.347656 377.785156 160.726562 C 381.636719 155.878906 387.722656 150.164062 394.308594 147.433594 C 398.535156 145.691406 403.132812 145.195312 407.355469 147.308594 C 412.699219 149.917969 415.554688 154.015625 417.296875 159.359375 C 418.539062 163.335938 419.160156 167.808594 419.53125 172.777344 C 417.917969 169.300781 415.929688 165.820312 413.320312 162.960938 C 409.839844 159.109375 405.492188 156.75 400.523438 157.125 C 397.789062 157.371094 395.179688 158.117188 392.816406 159.359375 C 390.457031 160.476562 388.222656 161.96875 386.234375 163.582031 C 386.109375 163.707031 383.125 166.566406 382.132812 167.683594 C 381.757812 168.179688 381.636719 168.679688 381.636719 168.800781 C 381.636719 169.546875 381.882812 169.921875 382.382812 170.042969 C 383.003906 170.292969 383.746094 170.042969 383.996094 169.300781 C 383.996094 169.300781 383.996094 169.175781 384.121094 169.175781 C 384.121094 169.050781 384.121094 169.050781 384.121094 168.925781 C 384.121094 168.925781 384.121094 169.050781 384.121094 169.050781 C 384.988281 167.933594 387.722656 165.570312 387.847656 165.449219 C 389.710938 164.082031 391.824219 162.714844 394.0625 161.71875 C 396.171875 160.726562 398.535156 160.105469 400.894531 159.855469 C 404.996094 159.484375 408.351562 161.597656 411.207031 164.703125 C 413.816406 167.433594 415.929688 171.039062 417.542969 174.515625 C 416.675781 173.273438 415.554688 172.15625 414.5625 171.285156 C 413.195312 170.167969 411.828125 169.175781 410.460938 168.679688 C 409.839844 168.429688 404.871094 166.691406 402.882812 165.945312 C 402.757812 165.945312 402.511719 165.820312 402.386719 165.820312 C 402.386719 165.820312 402.386719 165.820312 402.261719 165.695312 C 402.136719 165.695312 402.136719 165.695312 402.136719 165.570312 C 401.640625 165.324219 401.019531 165.324219 400.644531 165.695312 C 400.148438 166.191406 400.148438 166.9375 400.644531 167.433594 C 400.769531 167.558594 401.515625 168.058594 402.632812 168.554688 C 404.871094 169.546875 408.597656 171.039062 409.21875 171.285156 C 410.335938 171.785156 411.332031 172.53125 412.449219 173.398438 C 413.445312 174.269531 414.4375 175.261719 415.308594 176.382812 C 417.171875 178.617188 418.785156 181.226562 419.53125 183.464844 C 419.65625 183.835938 419.90625 184.085938 420.152344 184.207031 C 420.152344 184.207031 420.152344 184.332031 420.152344 184.332031 C 420.152344 184.953125 420.773438 185.574219 421.394531 185.449219 C 422.015625 185.449219 422.515625 184.828125 422.515625 184.207031 C 422.515625 183.214844 422.390625 182.097656 422.390625 181.101562 C 422.015625 172.28125 421.769531 164.453125 419.90625 158.117188 C 418.042969 151.90625 414.6875 147.183594 408.597656 144.078125 C 403.503906 141.59375 398.035156 141.964844 393.066406 144.203125 C 385.984375 147.183594 379.648438 153.394531 375.546875 158.613281 C 374.925781 159.484375 370.949219 164.328125 369.457031 167.683594 C 369.085938 168.554688 368.835938 169.300781 368.835938 169.921875 C 368.835938 170.542969 368.960938 171.164062 369.210938 171.535156 C 369.582031 172.40625 370.328125 172.53125 370.949219 172.15625 Z M 383.5 168.058594 C 383.746094 168.179688 383.996094 168.429688 383.996094 168.679688 C 383.996094 168.304688 383.746094 168.179688 383.5 168.058594 Z M 371.199219 170.417969 C 371.199219 170.417969 371.324219 170.542969 371.199219 170.417969 C 371.324219 170.542969 371.199219 170.417969 371.199219 170.417969 Z M 384.121094 169.300781 C 384.121094 169.421875 384.121094 169.546875 383.996094 169.421875 C 384.121094 169.421875 384.121094 169.421875 384.121094 169.300781 C 384.121094 169.421875 384.121094 169.300781 384.121094 169.300781 Z M 402.386719 166.191406 C 402.386719 166.191406 402.261719 166.070312 402.261719 166.070312 C 402.386719 165.945312 402.386719 166.070312 402.386719 166.191406 Z M 373.0625 138.488281 C 372.8125 137.867188 372.6875 137.121094 372.9375 136.375 C 373.433594 134.386719 375.917969 131.777344 376.664062 131.15625 C 379.027344 128.921875 381.882812 127.179688 384.742188 125.566406 C 387.597656 124.074219 390.707031 122.832031 393.6875 121.714844 C 402.632812 118.609375 412.449219 117.117188 421.769531 118.234375 C 431.210938 119.351562 440.160156 123.203125 447.242188 130.535156 C 451.960938 135.378906 454.945312 141.21875 456.808594 147.308594 C 459.542969 156.253906 460.039062 166.191406 460.535156 175.511719 C 460.910156 183.710938 461.53125 191.789062 462.648438 199.863281 C 463.765625 207.9375 465.257812 215.890625 467.617188 223.71875 C 469.359375 229.433594 471.347656 235.148438 474.203125 240.242188 C 476.066406 243.597656 478.429688 246.828125 481.285156 249.5625 C 481.785156 250.058594 481.785156 250.804688 481.285156 251.300781 C 480.789062 251.796875 480.042969 251.796875 479.546875 251.300781 C 476.441406 248.316406 473.957031 245.089844 471.96875 241.484375 C 468.984375 236.265625 466.75 230.425781 465.007812 224.464844 C 463.019531 218.128906 461.652344 211.667969 460.535156 205.207031 C 458.921875 195.515625 458.050781 185.699219 457.429688 175.761719 C 456.933594 166.691406 456.4375 157 453.703125 148.300781 C 451.960938 142.585938 449.230469 137.246094 444.878906 132.773438 C 438.292969 125.9375 429.96875 122.335938 421.148438 121.21875 C 412.203125 120.097656 402.882812 121.464844 394.308594 124.324219 C 391.453125 125.316406 388.46875 126.433594 385.613281 127.925781 C 382.878906 129.292969 380.269531 131.03125 378.03125 133.019531 C 377.660156 133.394531 376.417969 134.636719 375.546875 135.878906 C 375.296875 136.25 375.050781 136.625 374.925781 136.996094 C 374.925781 137.121094 374.925781 137.121094 374.925781 137.246094 C 374.925781 137.246094 375.050781 137.367188 375.175781 137.367188 C 375.796875 137.617188 376.167969 138.238281 376.042969 138.859375 C 375.796875 139.480469 375.175781 139.851562 374.554688 139.730469 C 373.933594 139.605469 373.433594 138.984375 373.0625 138.488281 Z M 492.839844 163.335938 C 492.46875 162.839844 492.59375 161.96875 493.089844 161.597656 C 493.710938 161.222656 494.457031 161.347656 494.828125 161.84375 C 495.449219 162.589844 495.824219 163.707031 496.074219 164.828125 C 496.570312 167.0625 496.570312 169.796875 496.695312 171.410156 C 496.941406 174.640625 497.191406 177.996094 497.191406 181.226562 C 497.191406 186.070312 497.066406 191.042969 496.941406 195.886719 C 496.816406 201.355469 496.570312 206.945312 496.695312 212.410156 C 496.695312 220.734375 497.191406 228.9375 498.929688 236.886719 C 500.792969 245.585938 503.898438 253.910156 509.492188 261.613281 C 509.863281 262.109375 509.738281 262.855469 509.242188 263.351562 C 508.746094 263.722656 508 263.601562 507.628906 263.101562 C 501.789062 255.277344 498.308594 246.578125 496.195312 237.632812 C 494.332031 229.558594 493.710938 221.109375 493.710938 212.660156 C 493.710938 207.070312 493.835938 201.601562 494.085938 196.011719 C 494.332031 191.167969 494.457031 186.320312 494.457031 181.476562 C 494.457031 178.246094 494.332031 175.015625 494.085938 171.910156 C 493.960938 170.542969 494.085938 168.429688 493.710938 166.441406 C 493.585938 165.199219 493.339844 164.082031 492.839844 163.335938 Z M 522.910156 294.289062 C 523.53125 294.039062 523.78125 293.292969 523.53125 292.671875 C 523.40625 292.550781 523.285156 292.300781 523.160156 292.175781 C 523.285156 291.679688 523.65625 290.933594 523.65625 290.683594 C 523.78125 289.816406 523.78125 288.945312 523.90625 288.078125 C 524.027344 287.207031 524.152344 286.335938 524.277344 285.46875 C 524.652344 283.105469 525.148438 280.746094 525.644531 278.507812 C 526.265625 276.148438 526.886719 273.914062 527.507812 271.675781 C 528.503906 268.195312 529.496094 264.84375 530.242188 261.488281 C 530.988281 258.007812 531.609375 254.40625 531.855469 250.925781 C 532.355469 243.96875 531.855469 237.011719 529.621094 229.683594 C 529.371094 229.058594 528.75 228.6875 528.128906 228.8125 C 527.507812 229.058594 527.136719 229.683594 527.382812 230.304688 C 529 235.894531 529.496094 241.238281 529.371094 246.453125 C 529.246094 251.425781 528.378906 256.269531 527.257812 261.117188 C 526.515625 264.347656 525.769531 267.574219 524.773438 270.804688 C 524.152344 273.167969 523.53125 275.527344 523.035156 277.886719 C 522.539062 280.25 522.042969 282.609375 521.667969 285.09375 C 521.542969 285.964844 521.417969 286.957031 521.296875 287.828125 C 521.171875 288.699219 521.171875 289.691406 521.046875 290.5625 C 521.046875 291.183594 520.675781 292.425781 520.675781 293.046875 C 520.675781 293.542969 520.921875 293.914062 521.046875 294.039062 C 521.667969 294.414062 522.164062 294.660156 522.910156 294.289062 Z M 523.285156 292.425781 C 523.53125 292.671875 523.65625 292.796875 523.40625 292.921875 C 523.160156 292.796875 523.160156 292.671875 523.285156 292.425781 Z M 272.789062 268.570312 C 271.921875 262.605469 271.546875 256.519531 272.042969 250.554688 C 272.789062 241.113281 275.523438 231.667969 281.238281 222.101562 C 281.613281 221.480469 282.355469 221.355469 282.855469 221.730469 C 283.476562 222.101562 283.601562 222.847656 283.351562 223.34375 C 278.132812 232.664062 275.773438 241.734375 275.152344 250.804688 C 274.777344 256.519531 275.152344 262.359375 275.894531 268.199219 C 277.015625 276.644531 279.25 285.09375 281.734375 293.914062 C 281.984375 294.535156 281.613281 295.28125 280.867188 295.40625 C 280.246094 295.65625 279.5 295.15625 279.375 294.535156 C 276.394531 285.714844 274.03125 277.144531 272.789062 268.570312 Z M 298.386719 243.472656 C 298.386719 243.472656 298.386719 243.597656 298.261719 243.597656 C 298.261719 243.597656 298.386719 243.472656 298.386719 243.472656 Z M 293.292969 271.800781 C 293.042969 267.078125 292.917969 262.480469 293.167969 257.761719 C 293.414062 254.65625 293.789062 251.546875 294.285156 248.441406 C 294.285156 248.316406 295.28125 244.09375 295.902344 242.726562 C 296.148438 242.105469 296.523438 241.734375 296.769531 241.609375 C 297.144531 241.359375 297.515625 241.359375 297.890625 241.484375 C 298.511719 241.734375 298.882812 242.480469 298.511719 243.101562 C 298.511719 243.222656 298.386719 243.347656 298.261719 243.472656 C 298.261719 243.472656 298.261719 243.472656 298.261719 243.597656 C 298.136719 243.597656 298.136719 243.722656 298.011719 243.722656 C 298.136719 243.722656 298.136719 243.722656 298.261719 243.597656 C 297.765625 244.964844 297.144531 248.816406 297.144531 248.941406 C 296.769531 251.175781 296.644531 253.535156 296.398438 255.773438 C 296.273438 257.265625 296.148438 258.878906 296.023438 260.371094 C 295.777344 264.222656 295.652344 268.074219 295.652344 271.925781 C 295.652344 272.546875 295.15625 273.167969 294.535156 273.167969 C 293.914062 273.042969 293.292969 272.421875 293.292969 271.800781 Z M 345.726562 453.195312 C 346.84375 454.5625 391.328125 481.648438 405.863281 481.898438 C 423.507812 482.144531 466.128906 457.542969 470.101562 453.816406 C 471.46875 452.574219 436.058594 503.515625 414.191406 506.871094 C 381.015625 511.839844 345.726562 453.195312 345.726562 453.195312 Z M 338.890625 262.605469 C 348.210938 256.019531 360.015625 251.425781 371.570312 252.667969 C 374.925781 253.039062 381.136719 254.28125 382.382812 258.132812 C 383.003906 260.246094 380.515625 261.117188 378.902344 261.238281 C 373.683594 261.984375 368.214844 261.363281 362.996094 261.613281 C 350.324219 262.109375 338.890625 265.589844 329.199219 273.914062 L 328.703125 272.671875 C 328.082031 272.171875 330.320312 269.9375 330.566406 269.6875 C 333.050781 267.078125 335.910156 264.71875 338.890625 262.605469 Z M 497.066406 270.183594 C 486.007812 262.480469 472.214844 261.488281 459.042969 262.359375 C 457.304688 262.480469 455.566406 262.605469 453.949219 262.730469 C 455.316406 265.710938 457.179688 268.445312 459.417969 270.804688 C 459.914062 271.304688 459.914062 272.046875 459.417969 272.546875 C 458.921875 273.042969 458.175781 273.042969 457.679688 272.546875 C 454.820312 269.8125 452.582031 266.582031 450.96875 262.980469 C 449.230469 263.101562 447.488281 263.226562 445.625 263.226562 C 444.011719 263.226562 441.523438 263.476562 440.40625 262.109375 C 439.164062 260.617188 440.902344 258.132812 442.023438 257.140625 C 443.636719 255.523438 445.625 254.53125 447.863281 253.910156 C 446.867188 250.058594 446.246094 245.957031 445.875 241.980469 C 445.378906 237.136719 445.253906 232.289062 445.128906 227.941406 C 445.003906 224.710938 444.878906 221.355469 444.878906 218.128906 C 444.878906 215.890625 445.003906 213.652344 445.253906 211.417969 C 445.378906 210.796875 446 210.300781 446.621094 210.300781 C 447.242188 210.425781 447.738281 211.046875 447.738281 211.667969 C 447.488281 213.777344 447.488281 215.890625 447.613281 218.128906 C 447.738281 221.355469 447.984375 224.710938 448.109375 227.941406 C 448.234375 232.289062 448.484375 237.011719 448.980469 241.859375 C 449.351562 245.710938 449.851562 249.5625 450.71875 253.414062 C 452.335938 253.039062 453.949219 252.914062 455.441406 252.792969 C 468.363281 251.175781 487.25 260.496094 497.066406 270.183594 Z M 334.296875 305.84375 C 334.296875 306.089844 334.296875 306.214844 334.171875 306.464844 C 333.921875 307.085938 333.175781 307.335938 332.554688 307.085938 C 331.808594 306.835938 331.5625 306.214844 331.5625 305.46875 C 331.5625 305.097656 331.933594 304.601562 332.308594 303.980469 C 332.929688 303.234375 333.921875 302.363281 334.046875 302.117188 C 335.660156 300.625 337.527344 299.257812 339.636719 298.140625 C 341.625 297.023438 343.738281 296.152344 345.976562 295.53125 C 348.085938 294.910156 350.199219 294.660156 352.4375 294.785156 C 355.667969 294.785156 358.773438 295.53125 361.878906 296.648438 C 367.097656 298.511719 371.820312 301.742188 375.175781 305.097656 C 375.671875 305.59375 375.671875 306.339844 375.175781 306.835938 C 374.675781 307.335938 373.933594 307.335938 373.433594 306.835938 C 370.328125 303.855469 365.855469 301.121094 360.886719 299.507812 C 358.648438 298.761719 356.164062 298.265625 353.800781 298.015625 C 351.441406 297.890625 349.082031 298.015625 346.71875 298.511719 C 344.609375 299.007812 342.746094 299.753906 341.003906 300.75 C 339.140625 301.742188 337.402344 302.859375 335.785156 304.226562 C 335.785156 304.351562 334.667969 305.46875 334.296875 305.84375 Z M 482.777344 312.429688 C 478.550781 308.824219 473.832031 305.84375 468.488281 304.476562 C 466.003906 303.855469 463.394531 303.605469 460.535156 303.855469 C 458.050781 304.105469 455.441406 304.726562 452.707031 305.84375 C 450.71875 306.710938 447.863281 309.445312 445.5 310.9375 C 444.632812 311.558594 443.761719 311.929688 443.015625 312.054688 C 442.394531 312.179688 441.773438 311.683594 441.648438 311.0625 C 441.523438 310.441406 442.023438 309.695312 442.644531 309.570312 C 443.140625 309.445312 443.636719 309.199219 444.257812 308.699219 C 445.625 307.832031 446.992188 306.464844 448.359375 305.347656 C 449.601562 304.351562 450.71875 303.605469 451.714844 303.109375 C 454.820312 301.742188 457.679688 300.996094 460.410156 300.75 C 463.640625 300.5 466.625 300.75 469.480469 301.496094 C 475.199219 303.109375 480.292969 306.589844 484.640625 310.5625 C 485.136719 310.9375 485.136719 311.808594 484.765625 312.304688 C 484.019531 312.925781 483.273438 312.925781 482.777344 312.429688 Z M 369.707031 390.949219 C 369.457031 390.328125 369.085938 390.203125 368.835938 390.203125 C 368.339844 389.957031 367.097656 390.082031 367.097656 391.570312 C 367.097656 392.191406 367.71875 394.675781 367.96875 395.671875 C 368.339844 396.789062 368.714844 398.03125 369.085938 399.148438 C 369.457031 400.269531 369.957031 401.511719 370.453125 402.628906 C 371.820312 405.488281 373.808594 407.472656 376.167969 408.839844 C 379.648438 410.828125 383.871094 411.328125 388.097656 411.203125 C 392.570312 411.078125 397.042969 410.828125 401.640625 410.457031 C 405.742188 410.082031 409.964844 409.710938 414.191406 409.339844 C 420.527344 408.71875 426.738281 408.097656 432.953125 407.597656 C 437.050781 407.226562 439.910156 405.113281 442.148438 402.257812 C 444.011719 399.773438 445.378906 396.789062 446.621094 394.304688 C 447.488281 392.316406 448.359375 390.453125 449.230469 389.460938 C 449.726562 388.960938 449.601562 388.21875 449.105469 387.71875 C 448.609375 387.222656 447.863281 387.347656 447.363281 387.84375 C 446.371094 388.960938 445.378906 390.949219 444.257812 393.3125 C 443.140625 395.671875 441.773438 398.40625 440.035156 400.765625 C 438.292969 403 435.933594 404.742188 432.703125 404.867188 C 425.621094 405.238281 418.414062 405.984375 411.207031 406.605469 C 406.484375 407.101562 401.640625 407.476562 396.917969 407.847656 C 393.9375 408.097656 390.953125 408.21875 387.972656 408.34375 C 384.867188 408.46875 381.757812 408.21875 379.027344 407.226562 C 376.417969 406.230469 374.179688 404.492188 372.8125 401.636719 C 372.316406 400.515625 371.820312 399.523438 371.445312 398.40625 C 371.074219 397.285156 370.578125 396.167969 370.328125 395.050781 C 370.203125 394.554688 369.582031 393.3125 369.457031 392.441406 C 369.832031 391.820312 369.832031 391.324219 369.707031 390.949219 Z M 369.457031 391.820312 C 369.457031 391.570312 369.457031 391.324219 369.582031 391.324219 C 369.832031 391.324219 369.582031 391.695312 369.457031 391.820312 Z M 510.363281 526.625 C 506.882812 535.570312 503.402344 544.515625 499.925781 553.460938 C 491.722656 574.210938 483.398438 594.957031 475.074219 615.832031 C 473.582031 619.683594 471.84375 623.535156 470.101562 627.386719 C 468.363281 631.238281 466.375 634.964844 464.386719 638.691406 C 464.140625 639.066406 462.152344 643.039062 461.03125 644.40625 C 460.289062 645.277344 459.417969 645.402344 459.042969 645.277344 C 457.925781 645.027344 456.558594 644.035156 455.070312 642.792969 C 452.707031 640.554688 450.097656 637.324219 448.730469 636.082031 C 444.632812 632.230469 440.65625 628.257812 436.804688 624.15625 C 431.089844 618.066406 425.496094 611.730469 419.78125 605.519531 C 418.785156 604.402344 415.183594 599.929688 411.703125 596.574219 C 410.214844 595.207031 408.847656 593.964844 407.605469 593.21875 C 407.355469 593.09375 406.984375 592.96875 406.734375 592.847656 C 406.609375 592.847656 406.484375 592.722656 406.363281 592.722656 C 405.117188 592.96875 404 594.089844 402.757812 595.332031 C 399.652344 598.5625 396.671875 603.40625 394.683594 605.269531 C 391.453125 608.375 388.097656 611.359375 384.742188 614.214844 C 376.789062 620.800781 368.464844 626.890625 360.886719 633.722656 C 359.269531 635.089844 354.300781 640.554688 349.949219 644.035156 C 348.460938 645.152344 347.09375 646.148438 345.851562 646.644531 C 344.855469 647.140625 343.988281 647.265625 343.242188 647.140625 C 342.867188 647.140625 342.371094 646.890625 341.875 646.394531 C 341.378906 645.898438 340.878906 645.152344 340.507812 644.035156 C 339.015625 640.679688 337.648438 634.34375 337.402344 633.351562 C 335.910156 628.628906 334.296875 623.90625 332.929688 619.1875 C 329.574219 608.128906 326.34375 596.945312 322.988281 585.890625 C 320.628906 577.9375 318.140625 569.984375 315.65625 562.035156 C 314.042969 556.691406 312.300781 551.472656 310.5625 546.253906 C 310.3125 545.632812 307.332031 538.054688 306.710938 534.949219 C 306.460938 534.078125 306.585938 533.457031 306.710938 533.085938 C 306.835938 532.710938 307.082031 532.464844 307.332031 532.339844 C 307.953125 531.96875 308.699219 532.089844 309.070312 532.710938 C 309.320312 533.085938 309.320312 533.457031 309.195312 533.832031 C 309.195312 533.953125 309.195312 534.203125 309.320312 534.328125 C 309.941406 537.308594 312.921875 544.765625 313.171875 545.386719 C 314.910156 550.601562 316.652344 555.945312 318.265625 561.289062 C 320.75 569.238281 323.238281 577.191406 325.722656 585.144531 C 329.199219 596.199219 332.429688 607.382812 335.785156 618.441406 C 337.277344 623.160156 338.769531 627.882812 340.257812 632.605469 C 340.632812 633.597656 342.246094 641.300781 343.863281 644.035156 C 343.863281 644.035156 343.988281 644.160156 343.988281 644.285156 C 344.234375 644.285156 344.484375 644.160156 344.730469 644.035156 C 345.726562 643.539062 346.96875 642.792969 348.210938 641.796875 C 352.4375 638.320312 357.40625 632.976562 358.898438 631.484375 C 366.601562 624.652344 374.925781 618.441406 382.878906 611.855469 C 386.234375 609 389.585938 606.140625 392.695312 603.160156 C 394.683594 601.296875 397.539062 596.449219 400.644531 593.21875 C 402.386719 591.480469 404.125 590.113281 405.742188 589.617188 C 406.484375 589.492188 407.480469 589.617188 408.472656 590.113281 C 409.59375 590.609375 410.835938 591.605469 412.324219 592.847656 C 416.300781 596.449219 420.898438 602.164062 422.015625 603.40625 C 427.734375 609.621094 433.199219 615.957031 438.914062 622.042969 C 442.644531 626.144531 446.621094 630.121094 450.71875 633.847656 C 452.085938 635.089844 454.695312 638.320312 457.058594 640.554688 C 457.800781 641.175781 458.421875 641.796875 459.046875 642.171875 C 460.039062 640.679688 461.652344 637.699219 461.777344 637.324219 C 463.765625 633.722656 465.628906 629.996094 467.496094 626.269531 C 469.234375 622.539062 470.847656 618.6875 472.464844 614.835938 C 480.789062 593.964844 489.238281 573.339844 497.5625 552.589844 C 501.167969 543.644531 504.644531 534.824219 508.125 525.878906 C 508.375 525.257812 508.996094 525.007812 509.617188 525.132812 C 510.363281 525.382812 510.609375 526.003906 510.363281 526.625 Z M 165.808594 627.632812 C 165.683594 627.757812 165.558594 627.757812 165.558594 627.632812 C 165.683594 627.511719 165.683594 627.511719 165.808594 627.632812 Z M 211.78125 735.726562 C 211.90625 736.347656 211.53125 736.96875 210.910156 737.21875 C 210.289062 737.34375 209.667969 736.96875 209.421875 736.347656 C 204.449219 716.839844 203.085938 698.703125 198.238281 681.183594 C 195.132812 669.878906 190.535156 658.945312 182.457031 648.011719 C 179.101562 643.414062 176.371094 639.933594 174.132812 637.078125 C 169.660156 631.484375 167.300781 629 166.054688 628.007812 C 165.933594 627.882812 165.808594 627.757812 165.683594 627.757812 C 165.808594 627.757812 166.054688 627.632812 166.054688 627.632812 C 165.933594 627.632812 165.808594 627.757812 165.558594 627.757812 C 165.433594 627.632812 165.433594 627.632812 165.433594 627.757812 C 165.0625 627.757812 164.566406 627.386719 164.441406 627.011719 C 164.191406 626.390625 164.441406 625.648438 165.1875 625.398438 C 165.433594 625.273438 165.933594 625.148438 166.800781 625.648438 C 167.421875 626.019531 168.542969 626.890625 170.777344 629.25 C 173.511719 632.105469 177.738281 637.324219 184.695312 646.394531 C 193.144531 657.703125 197.988281 668.882812 201.097656 680.5625 C 205.941406 697.832031 207.058594 715.972656 211.78125 735.726562 Z M 211.78125 735.726562 " fill-opacity="1" fill-rule="nonzero"/><g clip-path="url(#a87998915d)"><path fill="#5fab9d" d="M 816.011719 677.011719 C 816.011719 673.203125 812.871094 670.128906 809.0625 670.238281 C 747.421875 672.003906 745.109375 697.242188 679.003906 697.242188 C 610.5 697.242188 610.5 670.140625 542 670.140625 C 473.496094 670.140625 473.496094 697.242188 404.992188 697.242188 C 336.492188 697.242188 336.492188 670.140625 267.988281 670.140625 C 199.488281 670.140625 199.488281 697.242188 130.988281 697.242188 C 64.882812 697.242188 62.570312 672.003906 0.933594 670.238281 C -2.875 670.128906 -6.015625 673.203125 -6.015625 677.011719 L -6.015625 803.382812 C -6.015625 807.125 -2.984375 810.15625 0.757812 810.15625 L 809.234375 810.15625 C 812.976562 810.15625 816.011719 807.125 816.011719 803.382812 Z M 816.011719 677.011719 " fill-opacity="1" fill-rule="nonzero"/></g><g clip-path="url(#f46a9024a6)"><g clip-path="url(#20a2601ee0)"><g clip-path="url(#0a2966d5b4)"><path fill="#4ea494" d="M 71.917969 930.574219 C 92.277344 942.011719 122.148438 933.539062 149.363281 922.324219 C 187.929688 906.429688 163.78125 880.667969 142.332031 847.71875 C 128.105469 825.863281 114.507812 786.480469 113.4375 764.246094 C 112.65625 748.03125 121.371094 720.546875 141.328125 717.660156 C 148.066406 716.683594 153.667969 720.34375 158.898438 723.292969 C 199.285156 746.074219 210.925781 800.617188 239.125 835.523438 C 256.996094 857.648438 276.574219 839.90625 292.800781 826.421875 C 307.082031 814.5625 332.324219 799.558594 334.597656 781.609375 C 336.324219 767.972656 329.15625 752.648438 316.453125 746.878906 C 294.304688 736.8125 255.769531 761.859375 257.21875 719.457031 C 257.5 711.210938 255.421875 688.640625 250.121094 680.335938 C 242.984375 669.148438 227.65625 669.972656 215.167969 672.628906 C 200.433594 675.765625 194.144531 667.84375 183.355469 652.3125 C 175.445312 640.929688 165.417969 625.117188 154.371094 622.480469 C 134.460938 617.726562 134.84375 630.867188 128.378906 643.421875 C 121.992188 655.828125 121.542969 665.691406 100.382812 671.1875 C 91.460938 673.503906 73.691406 668.953125 62.171875 670.863281 C 10.515625 679.425781 63.941406 737.65625 56.511719 758.8125 C 53.726562 766.742188 54.347656 767.714844 47.246094 775.359375 C 33.25 790.414062 17.257812 786.949219 8.570312 798.515625 C -5.546875 817.3125 48.507812 842.28125 58.230469 853.648438 C 74.445312 872.621094 56.9375 895.6875 61.011719 910.207031 C 62.636719 915.984375 67.28125 927.972656 71.917969 930.574219 Z M 71.917969 930.574219 " fill-opacity="1" fill-rule="evenodd"/></g></g></g><g clip-path="url(#a7f18f07d8)"><g clip-path="url(#af52f5701c)"><g clip-path="url(#b7665f0ba0)"><path fill="#4ea494" d="M -114.335938 106.132812 C -133.582031 119.355469 -139.167969 149.894531 -141.117188 179.265625 C -143.878906 220.890625 -110.105469 210.589844 -71.070312 205.890625 C -45.183594 202.773438 -3.84375 207.957031 16.582031 216.8125 C 31.476562 223.269531 52.292969 243.21875 46.074219 262.40625 C 43.972656 268.878906 38.21875 272.289062 33.261719 275.679688 C -5.011719 301.867188 -59.085938 288.230469 -102.855469 298.125 C -130.597656 304.394531 -123.320312 329.792969 -118.386719 350.304688 C -114.046875 368.355469 -111.726562 397.628906 -96.625 407.59375 C -85.152344 415.164062 -68.238281 415.496094 -57.449219 406.644531 C -38.644531 391.210938 -44.105469 345.578125 -6.699219 365.597656 C 0.574219 369.488281 21.746094 377.585938 31.535156 376.496094 C 44.726562 375.035156 50.753906 360.917969 53.882812 348.535156 C 57.570312 333.929688 67.457031 331.785156 86.15625 328.960938 C 99.863281 326.890625 118.476562 324.871094 125.71875 316.121094 C 138.773438 300.359375 126.8125 294.898438 118.402344 283.554688 C 110.089844 272.347656 101.4375 267.589844 105.847656 246.179688 C 107.707031 237.152344 119.632812 223.214844 123.003906 212.035156 C 138.125 161.902344 62.289062 184.136719 46.589844 168.132812 C 40.699219 162.132812 39.554688 162.257812 35.832031 152.511719 C 28.5 133.3125 38.667969 120.488281 32.125 107.585938 C 21.492188 86.621094 -24.773438 124.105469 -39.269531 127.808594 C -63.449219 133.984375 -76.417969 108.09375 -91.246094 105.339844 C -97.144531 104.246094 -109.953125 103.121094 -114.335938 106.132812 Z M -114.335938 106.132812 " fill-opacity="1" fill-rule="evenodd"/></g></g></g><g clip-path="url(#c3c80ff09d)"><g clip-path="url(#8f31061c12)"><g clip-path="url(#b3acb619c7)"><path fill="#4ea494" d="M 762.371094 693.449219 C 784.445312 701.066406 812.324219 687.40625 837.101562 671.515625 C 872.21875 648.996094 843.859375 627.957031 816.878906 599.359375 C 798.980469 580.394531 778.578125 544.066406 773.558594 522.378906 C 769.898438 506.566406 773.566406 477.964844 792.691406 471.5625 C 799.144531 469.402344 805.3125 472.003906 810.984375 473.972656 C 854.789062 489.1875 875.96875 540.777344 909.941406 570.097656 C 931.472656 588.679688 947.570312 567.730469 961.132812 551.566406 C 973.070312 537.347656 995.234375 518.085938 994.269531 500.015625 C 993.535156 486.289062 983.75 472.492188 970.21875 469.078125 C 946.632812 463.125 913.179688 494.640625 907.042969 452.664062 C 905.851562 444.5 899.777344 422.664062 893.082031 415.4375 C 884.066406 405.699219 869.128906 409.242188 857.316406 414.089844 C 843.378906 419.800781 835.777344 413.125 822.390625 399.769531 C 812.574219 389.980469 799.886719 376.210938 788.550781 375.585938 C 768.113281 374.457031 770.832031 387.320312 766.710938 400.828125 C 762.636719 414.171875 763.953125 423.960938 744.113281 433.140625 C 735.75 437.011719 717.453125 435.707031 706.457031 439.636719 C 657.15625 457.277344 720.113281 505.042969 716.574219 527.183594 C 715.25 535.484375 716.035156 536.332031 710.40625 545.121094 C 699.324219 562.429688 682.96875 561.871094 676.484375 574.804688 C 665.945312 595.816406 723.589844 610.742188 735.179688 620.195312 C 754.519531 635.96875 741.40625 661.789062 748.007812 675.347656 C 750.632812 680.746094 757.34375 691.714844 762.371094 693.449219 Z M 762.371094 693.449219 " fill-opacity="1" fill-rule="evenodd"/></g></g></g><g clip-path="url(#2bbb69c6d2)"><g clip-path="url(#fd94c51cc3)"><g clip-path="url(#3e97d68dfb)"><path fill="#4ea494" d="M 782.105469 -53.246094 C 777.265625 -76.089844 751.191406 -92.945312 724.808594 -105.996094 C 687.414062 -124.488281 683.992188 -89.34375 673.386719 -51.484375 C 666.351562 -26.375 645.730469 9.828125 629.726562 25.304688 C 618.058594 36.589844 591.65625 48.179688 576.316406 35.085938 C 571.140625 30.667969 570.195312 24.042969 568.957031 18.167969 C 559.429688 -27.214844 592.734375 -71.949219 600.355469 -116.171875 C 605.1875 -144.199219 578.941406 -147.203125 558.101562 -150.5 C 539.765625 -153.402344 511.835938 -162.472656 496.847656 -152.335938 C 485.460938 -144.636719 478.675781 -129.140625 482.722656 -115.785156 C 489.773438 -92.503906 534.019531 -80.070312 501.203125 -53.183594 C 494.820312 -47.953125 479.234375 -31.5 476.488281 -22.039062 C 472.789062 -9.292969 483.523438 1.679688 493.761719 9.3125 C 505.839844 18.3125 504.035156 28.265625 499.484375 46.621094 C 496.148438 60.078125 490.886719 78.042969 496.191406 88.085938 C 505.753906 106.183594 515.378906 97.226562 529.078125 93.796875 C 542.617188 90.414062 550.324219 84.242188 568.414062 96.515625 C 576.042969 101.691406 584.347656 118.042969 593.382812 125.441406 C 633.902344 158.609375 642.40625 80.039062 663.203125 71.664062 C 671 68.523438 671.324219 67.417969 681.753906 67.710938 C 702.296875 68.292969 710.246094 82.597656 724.671875 81.492188 C 748.113281 79.699219 731.203125 22.605469 733.335938 7.796875 C 736.890625 -16.90625 765.773438 -18.96875 773.996094 -31.609375 C 777.269531 -36.644531 783.210938 -48.042969 782.105469 -53.246094 Z M 782.105469 -53.246094 " fill-opacity="1" fill-rule="evenodd"/></g></g></g></svg>